<?xml version="1.0" standalone="no"?>
<!DOCTYPE svg PUBLIC "-//W3C//DTD SVG 20010904//EN"
 "http://www.w3.org/TR/2001/REC-SVG-20010904/DTD/svg10.dtd">
<svg version="1.0" xmlns="http://www.w3.org/2000/svg"
 width="1336.000000pt" height="1048.000000pt" viewBox="0 0 1336.000000 1048.000000"
 preserveAspectRatio="xMidYMid meet">

<g transform="translate(0.000000,1048.000000) scale(0.100000,-0.100000)"
fill="#000000" stroke="none">
<path d="M7660 8268 c0 -11 60 -6 67 5 2 4 -11 7 -31 5 -20 -1 -36 -6 -36 -10z"/>
<path d="M7765 8256 c-36 -11 -38 -13 -16 -18 37 -10 15 -31 -25 -23 -43 8
-44 -6 -1 -24 32 -14 96 -15 109 -2 5 4 -8 5 -28 3 -26 -3 -35 -1 -30 7 4 6
15 11 24 11 15 0 15 2 2 10 -13 9 -13 11 0 20 8 5 20 10 25 10 6 0 5 -4 -2 -8
-6 -4 19 -8 55 -10 53 -2 75 -8 112 -32 26 -17 50 -30 54 -30 5 0 23 -7 42
-16 33 -16 84 -13 84 5 0 13 -60 39 -121 52 -40 9 -49 14 -35 19 13 4 -15 11
-75 19 -51 7 -103 14 -114 16 -11 2 -38 -2 -60 -9z"/>
<path d="M7595 8191 c-3 -6 -20 -11 -36 -11 -18 0 -28 -4 -24 -10 8 -13 55
-13 55 1 0 6 14 9 33 7 17 -2 34 2 37 7 7 14 -56 19 -65 6z"/>
<path d="M7960 8139 c0 -6 9 -9 20 -6 11 3 23 1 26 -4 3 -5 16 -9 29 -9 32 0
56 -10 50 -21 -3 -5 6 -11 21 -15 34 -9 106 -49 99 -56 -3 -2 12 -13 32 -24
21 -10 41 -23 44 -28 4 -5 14 -6 22 -3 8 3 24 -3 36 -14 12 -11 21 -16 21 -12
0 4 6 -2 14 -12 8 -11 12 -23 10 -27 -3 -4 1 -5 9 -2 8 3 24 -5 36 -17 11 -12
24 -20 27 -16 10 10 -103 119 -172 166 -68 45 -170 95 -194 94 -8 -1 -22 1
-30 4 -32 11 -100 12 -100 2z"/>
<path d="M8170 8140 c-16 -10 -8 -14 24 -10 10 1 15 -3 12 -8 -8 -14 11 -25
25 -16 8 4 4 13 -12 25 -28 22 -29 22 -49 9z"/>
<path d="M7469 8115 c-3 -2 -25 -5 -49 -6 -25 -2 -60 -9 -78 -16 -38 -16 -94
-62 -87 -73 3 -4 -8 -13 -24 -19 -23 -10 -27 -17 -24 -39 1 -15 1 -22 -3 -15
-4 9 -11 9 -29 1 -14 -6 -22 -14 -20 -19 8 -12 -38 -3 -72 15 -18 9 -33 18
-33 21 0 2 25 3 55 1 59 -3 66 7 13 19 l-33 8 30 7 c25 6 27 8 13 14 -10 5
-26 5 -35 0 -10 -4 -22 -6 -26 -5 -5 1 -6 -3 -2 -9 3 -5 -3 -10 -14 -10 -12 0
-21 -4 -21 -10 0 -5 -6 -10 -13 -10 -7 0 -22 -7 -32 -15 -61 -46 -69 -54 -64
-60 12 -12 133 -25 179 -19 35 4 41 3 27 -6 -9 -6 -21 -9 -26 -5 -5 3 -16 -2
-25 -10 -9 -9 -21 -15 -28 -14 -30 4 -43 -2 -23 -11 14 -6 5 -9 -36 -9 -31 -1
-59 -4 -63 -8 -4 -5 -11 -8 -14 -9 -28 -2 -90 -29 -82 -34 7 -4 -9 -22 -40
-44 -28 -20 -48 -41 -45 -46 3 -6 -1 -10 -9 -10 -8 0 -20 -8 -25 -17 -6 -10
-11 -14 -11 -10 0 9 -60 -58 -60 -67 0 -4 5 -4 11 0 8 4 8 0 0 -15 -13 -24
-23 -28 -15 -6 9 24 -2 18 -21 -11 -9 -15 -12 -23 -5 -19 9 5 11 3 6 -6 -3 -8
-9 -22 -12 -31 -4 -10 -10 -18 -14 -18 -10 0 -46 -104 -53 -152 -5 -36 -5 -36
13 -18 10 10 30 40 45 67 15 26 36 57 47 68 13 13 10 3 -11 -33 -36 -62 -101
-198 -101 -212 0 -6 -4 -10 -9 -10 -5 0 -7 -8 -4 -19 3 -10 -2 -32 -11 -48
-11 -22 -12 -33 -4 -41 8 -8 8 -15 -1 -26 -7 -8 -10 -19 -7 -25 3 -5 2 -11 -3
-13 -5 -1 -12 -16 -16 -33 l-6 -30 19 22 19 22 11 -24 c9 -20 7 -27 -19 -49
-16 -14 -30 -35 -30 -46 -1 -11 -2 -24 -3 -30 -1 -5 3 -10 8 -9 17 1 24 -23
15 -55 -5 -19 -3 -57 4 -96 l12 -65 17 80 c10 44 20 99 23 123 3 24 10 52 15
63 6 11 8 24 5 29 -3 6 -1 10 4 10 17 0 13 28 -5 32 -13 2 -12 7 8 29 13 14
35 55 47 90 13 35 27 68 32 74 5 5 9 17 9 26 0 10 16 39 36 65 20 26 37 53 38
60 1 7 15 25 31 41 17 16 62 63 102 106 40 42 79 77 88 77 22 0 19 -10 -12
-44 l-28 -29 30 20 c46 31 62 16 19 -18 -28 -22 -32 -29 -18 -29 16 -1 15 -3
-6 -15 -14 -7 -23 -16 -20 -18 3 -3 -8 -15 -23 -27 -15 -12 -45 -45 -67 -74
-21 -28 -50 -64 -65 -80 -37 -43 -88 -152 -89 -192 -1 -19 -5 -34 -9 -34 -5 0
-6 -3 -4 -7 3 -5 1 -30 -4 -58 -18 -107 -31 -223 -31 -285 0 -36 -5 -71 -10
-77 -11 -14 -2 -165 11 -198 9 -21 37 -77 83 -165 16 -30 41 -67 56 -82 24
-26 25 -55 0 -30 -7 7 -20 12 -30 12 -16 0 -18 -6 -14 -47 3 -27 8 -86 12
-132 3 -49 12 -94 21 -108 15 -23 20 -50 22 -127 2 -60 17 -29 23 47 1 15 6
27 10 27 4 0 8 20 8 45 0 78 15 49 29 -55 7 -56 19 -120 26 -143 7 -23 10 -48
7 -56 -3 -8 0 -11 7 -7 7 4 13 -8 17 -34 6 -36 8 -38 19 -23 12 16 14 13 20
-22 4 -22 18 -77 31 -122 20 -65 26 -112 30 -230 3 -81 6 -174 8 -205 1 -51
-1 -58 -21 -67 -13 -6 -26 -18 -29 -26 -4 -8 -10 -13 -14 -10 -5 3 -7 -2 -6
-12 5 -33 80 -43 138 -19 22 10 39 11 49 5 24 -15 51 -10 56 11 6 24 5 23 38
8 19 -9 25 -19 25 -44 0 -32 -1 -33 -27 -23 -23 9 -30 7 -44 -12 -15 -20 -20
-21 -59 -11 -34 8 -50 7 -85 -6 -41 -15 -48 -15 -100 2 -55 17 -56 17 -90 -4
-18 -11 -71 -28 -117 -36 -89 -16 -212 -53 -204 -61 2 -3 28 2 58 10 29 8 73
18 98 21 25 4 73 16 108 28 57 20 66 21 95 8 29 -13 72 -15 175 -8 20 1 52 -1
70 -6 29 -7 34 -5 39 13 6 23 25 26 71 10 22 -8 34 -20 42 -45 7 -20 10 -37 8
-39 -2 -2 -21 0 -43 5 -65 15 -92 12 -98 -10 -6 -23 -39 -26 -83 -10 -19 7
-44 7 -86 -1 -54 -11 -63 -10 -108 11 -53 25 -53 25 -195 -9 -119 -28 -204
-55 -264 -85 -30 -14 -62 -26 -71 -26 -9 0 -25 -7 -36 -15 -18 -14 -18 -14 11
-15 17 0 53 11 81 24 29 13 78 30 110 37 33 7 79 23 104 35 25 12 76 27 113
34 66 10 70 10 115 -15 41 -23 57 -26 122 -24 41 1 94 -1 117 -5 40 -8 43 -7
53 19 9 23 14 26 38 21 15 -3 56 -11 92 -17 56 -10 69 -16 102 -53 20 -22 37
-43 38 -46 0 -9 -184 7 -220 18 -42 15 -66 8 -73 -20 -5 -19 -10 -20 -59 -14
-29 4 -82 8 -118 9 -53 2 -76 9 -123 36 l-58 33 -72 -22 c-39 -12 -85 -31
-101 -41 -17 -11 -39 -19 -50 -19 -20 0 -97 -23 -158 -48 -20 -8 -44 -12 -52
-9 -22 9 -46 -2 -46 -20 0 -25 109 -11 230 30 58 19 122 38 142 42 21 4 42 13
49 21 18 22 52 17 126 -20 57 -29 83 -35 162 -40 l94 -7 23 28 c21 27 23 27
65 15 24 -8 89 -17 144 -21 119 -10 174 -24 229 -58 23 -15 73 -41 111 -60 58
-27 64 -33 35 -28 -19 2 -84 9 -145 15 -227 23 -343 38 -364 50 -41 21 -82 16
-107 -15 l-22 -28 -97 16 c-68 12 -114 26 -151 47 -63 35 -86 37 -105 10 -10
-14 -37 -24 -97 -35 -45 -9 -102 -24 -126 -34 -24 -11 -78 -22 -120 -26 -71
-7 -77 -9 -74 -29 3 -20 8 -21 73 -17 39 2 91 11 116 21 25 10 83 24 128 31
72 11 82 15 87 36 8 32 42 30 113 -7 60 -31 201 -65 232 -55 10 3 21 15 24 26
8 25 59 25 139 0 34 -11 113 -24 176 -30 63 -6 162 -15 220 -21 58 -5 157 -13
221 -16 l116 -7 49 53 c27 28 50 56 52 60 2 5 -25 8 -60 8 -105 -1 -265 51
-379 124 -56 36 -128 105 -160 155 -46 68 -78 238 -52 264 16 16 148 25 139
10 -6 -8 0 -10 18 -5 16 4 26 2 26 -5 0 -14 73 -8 78 7 2 7 12 12 22 12 10 0
23 13 30 31 8 18 18 28 26 25 14 -5 17 3 29 78 4 21 11 50 16 64 8 22 12 24
20 12 8 -11 9 -10 4 8 -7 23 9 31 19 10 5 -10 7 -10 12 0 3 6 12 12 20 12 8 0
14 5 14 10 0 6 7 10 15 10 8 0 23 8 34 19 10 10 39 20 66 23 26 3 50 10 54 16
7 12 43 11 52 -2 4 -5 15 -6 25 -2 11 4 21 7 23 6 2 -1 8 4 12 12 6 9 9 9 9 1
0 -6 -5 -15 -11 -18 -6 -4 -8 -13 -5 -21 3 -8 1 -14 -4 -14 -6 0 -10 5 -10 10
0 6 -4 10 -10 10 -5 0 -8 -10 -6 -22 3 -13 5 -29 5 -37 1 -16 -1 -17 69 47 26
25 32 27 32 12 0 -9 -7 -23 -16 -31 -26 -21 -44 -66 -43 -106 0 -31 2 -34 10
-18 6 15 8 7 5 -28 -2 -38 0 -47 14 -47 9 0 26 14 39 30 12 17 26 28 30 25 5
-3 11 1 14 9 5 13 52 27 62 18 2 -3 -8 -16 -23 -30 -15 -13 -40 -36 -56 -51
-20 -18 -27 -21 -23 -9 8 22 -19 13 -27 -9 -9 -23 40 -117 90 -172 24 -27 41
-51 38 -54 -3 -3 2 -4 13 -3 13 2 18 12 18 35 0 17 3 31 7 31 5 0 8 -7 8 -15
0 -8 4 -15 9 -15 4 0 29 -19 55 -43 57 -54 59 -40 5 37 -42 61 -52 106 -30
143 9 16 10 16 11 -7 1 -42 11 -70 24 -63 19 12 46 13 46 2 0 -5 4 -8 9 -5 4
3 14 -7 20 -22 11 -22 14 -24 21 -11 5 9 10 40 12 70 2 30 8 57 13 61 6 4 11
71 13 155 2 153 12 247 31 296 6 16 11 41 11 57 0 16 5 32 10 35 6 4 8 10 5
15 -3 5 -1 19 6 31 24 45 58 240 59 339 0 29 2 32 11 17 18 -31 29 -8 30 66 1
70 1 71 14 41 8 -18 15 -48 17 -68 3 -50 28 -72 28 -26 0 38 10 33 27 -13 l11
-32 1 40 c1 39 -11 100 -28 140 -5 11 -21 50 -36 88 -15 37 -31 70 -36 73 -5
3 -9 12 -9 20 0 14 2 13 16 0 19 -20 34 -21 34 -2 0 19 -41 150 -49 156 -3 3
-7 16 -7 30 -1 14 -18 77 -38 139 -20 62 -34 117 -31 121 3 5 2 10 -3 12 -4 1
-24 47 -46 101 -21 53 -42 97 -48 97 -6 0 -7 7 -4 16 3 8 2 13 -2 10 -4 -2
-25 50 -46 117 -21 67 -46 136 -55 152 -10 17 -26 55 -35 85 -20 63 -99 228
-90 190 6 -27 38 -117 60 -167 8 -17 14 -42 14 -55 0 -25 41 -196 52 -213 3
-5 9 -34 13 -62 4 -29 11 -55 16 -59 5 -3 9 -15 9 -28 0 -12 4 -26 9 -31 5 -6
16 -37 26 -70 26 -95 136 -366 150 -371 7 -3 16 -23 19 -45 4 -22 14 -51 23
-65 8 -14 13 -27 10 -30 -7 -7 -57 71 -57 89 0 7 -9 23 -20 35 -11 11 -17 27
-14 35 3 8 0 18 -7 23 -8 5 -10 3 -4 -7 5 -10 5 -11 -3 -4 -15 15 -74 125 -66
125 3 0 -1 11 -10 25 -9 13 -16 31 -16 40 0 8 -4 15 -10 15 -5 0 -10 6 -10 14
0 8 -7 16 -15 20 -8 3 -15 10 -15 16 0 6 4 9 8 6 5 -3 6 8 4 25 -2 16 -9 32
-14 35 -6 4 -8 -2 -3 -15 3 -11 2 -21 -3 -21 -10 0 -32 44 -32 65 0 8 -4 15
-8 15 -4 0 -8 9 -9 21 -1 12 -8 26 -16 32 -8 7 -19 21 -25 32 -10 18 -11 17
-12 -10 -1 -53 -18 -6 -44 126 -54 263 -67 322 -92 402 -36 111 -102 261 -147
329 -20 30 -37 59 -37 64 0 5 -11 19 -25 32 -13 13 -22 29 -19 36 6 16 -42 56
-67 56 -11 0 -19 5 -19 11 0 6 9 8 20 4 28 -9 44 3 29 21 -6 7 -14 12 -18 9
-4 -2 -15 7 -25 21 -11 13 -29 24 -42 24 -12 0 -26 5 -30 12 -4 7 -3 8 4 4 7
-4 12 -4 12 1 0 16 -66 52 -137 76 -40 13 -70 27 -66 31 3 3 -3 6 -15 6 -24 0
-30 16 -9 23 6 2 -15 9 -48 16 -33 6 -69 14 -81 16 -12 3 -23 3 -25 0z m211
-297 c74 -37 173 -111 260 -192 45 -43 172 -218 130 -181 -12 11 -29 32 -36
48 -8 15 -19 25 -23 23 -5 -3 -16 3 -25 13 -13 15 -14 20 -4 24 9 4 8 6 -3 6
-9 1 -34 18 -55 39 -21 20 -31 28 -24 17 8 -11 -2 -4 -21 15 -55 55 -145 130
-155 130 -5 0 -24 13 -41 29 -29 26 -55 41 -78 46 -5 1 -12 3 -15 4 -3 2 -13
4 -24 6 -10 2 -23 8 -29 14 -23 23 71 -4 143 -41z m-492 -16 c6 -18 -15 -14
-22 4 -4 10 -1 14 6 12 6 -2 14 -10 16 -16z m-155 -29 c-13 -2 -23 -9 -23 -15
0 -5 7 -8 15 -4 8 3 15 1 15 -4 0 -6 7 -10 15 -10 31 0 13 -26 -33 -46 -53
-23 -137 -40 -128 -25 4 5 1 11 -4 13 -16 5 71 68 94 68 13 0 17 3 10 10 -5 5
-24 6 -47 1 -20 -5 -37 -7 -37 -5 0 11 50 23 95 22 28 0 40 -3 28 -5z m598
-140 c13 -16 12 -17 -3 -4 -10 7 -18 15 -18 17 0 8 8 3 21 -13z m-631 -23 c0
-5 -7 -10 -15 -10 -22 0 -66 -30 -59 -41 3 -5 -2 -6 -11 -3 -9 4 -15 3 -13 -2
1 -5 -9 -20 -23 -34 -100 -96 -141 -133 -130 -118 7 9 10 22 6 28 -4 6 -1 9 6
8 7 -2 27 18 45 44 17 26 35 44 38 40 4 -3 5 0 2 8 -7 18 59 70 88 70 12 0 28
5 36 10 19 13 30 13 30 0z m770 -84 c47 -42 90 -74 95 -72 21 7 110 -73 154
-138 15 -21 14 -21 -7 -2 -12 11 -22 15 -22 11 0 -5 -12 2 -27 16 l-28 24 24
-27 c13 -15 25 -38 26 -52 2 -14 11 -33 19 -42 9 -9 26 -35 37 -58 l20 -41
-21 25 c-12 14 -32 41 -44 60 -31 46 -76 86 -103 93 -21 5 -22 2 -16 -21 6
-27 24 -54 125 -189 32 -42 54 -81 51 -87 -3 -6 -3 -8 2 -4 9 9 35 -9 35 -24
0 -6 -7 -5 -15 2 -13 11 -14 10 -9 -6 4 -12 -3 -8 -20 11 -14 17 -23 36 -21
43 3 7 1 11 -4 8 -4 -3 -19 7 -32 22 -15 17 -17 21 -5 12 17 -13 19 -13 14 0
-2 8 -12 16 -21 18 -10 2 -65 53 -123 112 -59 60 -115 112 -125 115 -10 4 -18
11 -16 17 2 10 -51 57 -132 118 -44 33 -117 60 -166 61 l-40 1 35 8 c25 6 47
3 82 -10 56 -21 55 -11 -2 21 -21 12 -41 28 -44 36 -6 15 102 -36 149 -71 48
-36 62 -42 41 -18 -26 29 -10 28 30 -3 18 -14 37 -25 42 -25 5 0 16 -8 25 -18
10 -10 38 -34 65 -52 l47 -33 -25 29 c-77 88 -78 99 -2 32 l47 -43 -38 45
c-21 25 -71 78 -110 119 -89 91 -60 78 53 -23z m-539 31 c-8 -8 -11 -7 -11 4
0 9 3 19 7 23 4 4 9 2 11 -4 3 -7 -1 -17 -7 -23z m659 23 c0 -4 20 -28 45 -54
25 -27 42 -52 39 -57 -9 -15 -22 -10 -29 11 -3 11 -12 20 -19 20 -7 0 -25 14
-41 30 -16 17 -23 30 -16 30 7 0 9 5 5 11 -5 8 -9 8 -14 -1 -6 -9 -13 -9 -29
-1 -29 16 -27 18 19 18 22 0 40 -3 40 -7z m-15 -50 c3 -5 1 -10 -4 -10 -6 0
-11 5 -11 10 0 6 2 10 4 10 3 0 8 -4 11 -10z m-607 -8 c-4 -10 48 -62 62 -62
5 0 10 -5 10 -11 0 -6 6 -9 13 -6 6 2 31 -9 53 -24 23 -16 44 -25 48 -22 3 4
20 -4 37 -16 l30 -23 -15 31 c-20 38 -20 40 4 38 11 -1 20 -4 20 -8 0 -4 8 -9
18 -13 9 -3 24 -10 32 -15 8 -5 27 -14 43 -22 15 -7 27 -16 27 -21 0 -5 -4 -6
-10 -3 -5 3 -10 -3 -10 -14 0 -14 9 -23 25 -27 14 -3 23 -9 21 -13 -3 -4 25
-34 61 -66 107 -98 203 -194 203 -205 0 -6 -25 -10 -58 -9 -41 1 -68 -4 -97
-20 -22 -11 -45 -21 -51 -21 -7 0 -52 -21 -100 -46 -49 -25 -99 -51 -111 -58
-15 -7 -21 -17 -18 -31 3 -11 2 -14 -1 -6 -5 11 -8 11 -15 0 -7 -11 -9 -11 -9
-1 0 7 -4 10 -10 7 -5 -3 -10 -15 -10 -25 0 -27 43 -37 75 -16 27 18 49 21 40
6 -4 -6 -10 -8 -15 -5 -4 3 -10 1 -12 -3 -4 -12 -186 -116 -227 -130 -47 -17
-89 -15 -138 6 -28 11 -41 22 -38 31 9 22 -41 59 -98 72 -28 7 -96 13 -150 13
l-97 1 6 65 c4 36 10 69 15 75 6 5 9 2 9 -8 0 -29 18 -18 25 16 4 17 13 43 20
57 7 14 19 45 26 70 7 25 23 66 35 91 24 49 167 203 178 192 3 -3 6 1 6 10 0
10 4 17 8 17 11 0 43 56 36 63 -9 9 35 19 48 11 8 -5 9 -2 5 10 -4 9 -3 15 1
12 14 -8 35 11 38 36 3 28 3 28 9 28 3 0 4 -4 3 -8z m279 -78 c-3 -3 -12 -4
-19 -1 -8 3 -5 6 6 6 11 1 17 -2 13 -5z m447 -10 c5 -14 4 -15 -9 -4 -17 14
-19 20 -6 20 5 0 12 -7 15 -16z m-350 -34 c12 -12 14 -20 7 -24 -6 -4 -11 -2
-11 4 0 6 -13 16 -30 21 -16 6 -30 15 -30 21 0 13 41 -1 64 -22z m-1073 -47
c-12 -20 -14 -14 -5 12 4 9 9 14 11 11 3 -2 0 -13 -6 -23z m359 -36 c0 -2 -10
-12 -21 -23 -22 -19 -22 -19 -8 4 12 19 29 30 29 19z m33 -34 c-9 -25 -47 -83
-71 -111 -23 -26 -39 -14 -22 17 13 26 13 34 -2 25 -15 -9 3 17 41 59 28 31
64 38 54 10z m-338 -88 c-8 -21 -18 -36 -21 -33 -3 4 -1 14 5 25 5 10 12 27
16 37 3 10 8 16 11 14 3 -3 -2 -23 -11 -43z m94 -124 c-6 -18 -13 -30 -15 -28
-2 2 1 18 7 36 6 18 13 30 15 28 2 -2 -1 -18 -7 -36z m-167 -14 c-5 -7 -12
-25 -16 -41 -4 -15 -9 -27 -11 -24 -8 8 18 88 27 82 5 -4 5 -10 0 -17z m1375
-129 c29 -7 53 -16 53 -20 0 -5 -2 -8 -4 -8 -17 0 -253 -55 -305 -70 -35 -11
-66 -20 -70 -20 -9 1 178 99 219 115 45 17 44 17 107 3z m203 -78 c0 -5 -4
-10 -10 -10 -5 0 -10 5 -10 10 0 6 5 10 10 10 6 0 10 -4 10 -10z m-186 -20
c-5 -5 -37 -11 -72 -14 -34 -3 -99 -15 -144 -26 -45 -11 -83 -18 -85 -16 -6 5
127 46 182 55 72 12 131 13 119 1z m-324 -75 c-7 -8 -20 -15 -29 -15 -11 1 -8
5 9 15 32 18 35 18 20 0z m-1123 -17 c-3 -8 -6 -5 -6 6 -1 11 2 17 5 13 3 -3
4 -12 1 -19z m522 -63 c13 -14 -33 -33 -97 -39 -37 -4 -74 -9 -83 -12 -10 -3
-18 3 -22 15 -6 24 3 38 28 43 28 6 166 0 174 -7z m468 -9 c-7 -17 24 -44 60
-52 16 -4 33 -11 39 -15 9 -8 38 -15 69 -19 6 0 2 -7 -7 -14 -16 -12 -16 -14
8 -24 35 -17 121 -15 183 4 29 8 51 17 49 19 -10 10 -78 11 -82 1 -2 -6 -5 -3
-5 6 -1 9 5 19 12 21 24 10 -15 26 -40 16 -25 -9 -88 -12 -65 -2 6 2 12 15 12
28 0 33 14 38 35 15 23 -25 46 -25 95 0 22 11 41 16 45 11 3 -6 21 -7 41 -4
27 4 34 2 32 -8 -2 -9 5 -13 22 -12 44 3 70 -7 107 -42 31 -29 37 -42 40 -87
7 -91 -45 -145 -188 -195 -58 -19 -96 -25 -172 -27 -56 0 -101 3 -105 9 -4 6
-25 23 -48 38 -22 15 -54 42 -70 59 -16 18 -20 26 -10 18 18 -14 19 -14 8 7
-7 12 -17 25 -24 29 -7 5 -8 3 -3 -7 8 -12 6 -12 -8 0 -18 15 -23 26 -7 16 17
-11 11 6 -26 66 -40 66 -46 109 -19 139 21 23 29 26 22 6z m726 -153 c25 -28
77 -133 77 -155 0 -11 14 -40 30 -65 17 -24 30 -50 30 -58 0 -7 6 -15 13 -18
8 -2 12 -30 12 -93 -1 -83 -3 -94 -39 -163 -20 -40 -53 -89 -72 -109 -19 -19
-34 -38 -34 -41 0 -3 -23 -31 -51 -61 -28 -30 -86 -94 -130 -141 -97 -106
-167 -161 -239 -185 -70 -23 -87 -37 -38 -32 25 3 39 -1 42 -9 3 -7 0 -13 -7
-13 -8 0 -6 -4 3 -10 17 -11 10 -13 -14 -4 -9 3 -13 10 -10 15 2 5 -42 8 -99
8 -86 -1 -113 3 -152 20 -26 12 -49 21 -50 21 -1 0 -2 -49 -3 -110 -1 -60 -5
-118 -11 -127 -8 -15 -13 -11 -30 29 -11 26 -20 55 -20 65 1 10 -3 36 -7 57
-4 23 -3 37 2 34 5 -4 8 21 7 55 -2 76 -21 103 -130 180 -138 97 -215 192
-312 384 -17 34 -31 64 -31 67 0 2 28 7 61 11 53 6 63 5 72 -10 8 -15 19 -16
73 -10 l63 7 7 -29 c11 -44 14 -46 38 -20 16 18 30 23 48 20 20 -4 26 0 31 18
7 26 -17 59 -42 59 -29 0 -61 30 -61 56 0 14 14 65 30 114 17 49 30 105 30
125 0 61 25 95 71 95 19 0 43 -20 102 -87 43 -47 100 -102 127 -120 63 -42 76
-64 52 -92 -9 -12 -30 -24 -47 -27 -59 -10 -100 -24 -120 -42 -27 -23 -63 -67
-47 -58 6 4 12 2 12 -4 0 -6 -8 -13 -17 -16 -10 -4 -33 -13 -51 -21 -32 -14
-33 -15 -16 -34 23 -25 49 -24 109 6 41 21 52 32 61 63 8 28 17 38 36 42 35 7
103 65 118 100 15 37 24 37 53 4 12 -14 60 -45 107 -70 84 -43 129 -84 94 -84
-10 0 -46 -13 -81 -30 -34 -16 -69 -30 -76 -30 -7 0 -40 -9 -72 -21 -46 -16
-87 -21 -180 -23 -120 -2 -145 -7 -145 -29 0 -19 -53 -45 -75 -36 -34 13 -65
10 -65 -6 0 -8 -4 -15 -10 -15 -5 0 -10 -4 -10 -10 0 -5 6 -10 14 -10 7 0 25
-9 38 -20 14 -11 46 -21 70 -23 25 -2 50 -7 57 -11 18 -11 13 21 -6 40 -13 13
-14 19 -5 22 6 2 12 9 12 16 0 9 9 12 25 8 15 -2 25 0 25 7 0 7 19 11 48 11
27 0 63 7 81 16 19 9 42 13 59 9 20 -4 33 -1 42 10 9 11 22 14 39 10 16 -3 34
0 46 9 27 21 43 20 50 -4 7 -23 18 -25 37 -7 7 7 33 25 58 40 72 43 91 63 92
96 1 31 -27 64 -67 77 -26 9 -75 43 -75 53 0 9 24 21 108 52 67 25 79 39 35
39 -25 0 -21 4 27 31 92 50 123 90 136 168 7 45 13 49 37 24z m-1227 -7 c20
-21 17 -28 -6 -14 -11 7 -20 16 -20 20 0 12 10 9 26 -6z m83 -36 c6 0 26 7 42
16 17 8 40 14 52 12 21 -4 -69 -36 -148 -53 l-30 -7 29 -24 c15 -14 27 -26 25
-28 -2 -1 -15 -10 -29 -19 l-24 -17 40 0 c30 0 58 11 114 45 84 53 90 50 90
-35 -1 -172 -73 -256 -230 -268 -63 -4 -66 -3 -77 21 -14 30 -39 169 -49 270
-6 58 -5 67 10 67 9 0 16 -4 16 -10 0 -15 13 -12 69 13 28 12 51 28 51 36 0
11 4 11 18 -2 10 -10 24 -17 31 -17z m-335 -226 c3 -8 2 -12 -4 -9 -6 3 -10
10 -10 16 0 14 7 11 14 -7z m60 -81 c29 -32 40 -50 29 -47 -10 3 -29 22 -43
42 -27 40 -46 70 -38 62 2 -3 26 -28 52 -57z m1950 1 c3 -8 2 -12 -4 -9 -6 3
-10 10 -10 16 0 14 7 11 14 -7z m-169 -115 c14 -54 23 -235 11 -246 -5 -5 -9
72 -4 80 1 1 -4 12 -10 24 -7 12 -14 57 -17 100 -3 43 -8 87 -12 98 -4 15 -2
17 6 9 7 -6 18 -35 26 -65z m-1768 -261 c-3 -8 -6 -5 -6 6 -1 11 2 17 5 13 3
-3 4 -12 1 -19z m1768 -95 c-20 -113 -110 -283 -148 -283 -6 0 -3 8 6 18 10
10 14 22 10 25 -3 4 -2 7 4 7 13 0 45 48 48 69 2 29 28 71 38 64 6 -3 7 -1 4
4 -6 9 33 133 42 133 2 0 0 -17 -4 -37z m-1166 -236 c1 -5 -3 -5 -9 -2 -5 3
-10 16 -9 28 0 21 1 21 9 2 5 -11 9 -24 9 -28z m661 -228 c0 -6 -4 -7 -10 -4
-5 3 -10 11 -10 16 0 6 5 7 10 4 6 -3 10 -11 10 -16z m-744 -131 c-2 -95 -4
-103 -23 -106 -18 -3 -20 1 -15 44 3 33 1 45 -7 40 -6 -4 -11 -19 -12 -34 0
-25 -1 -26 -9 -5 -10 24 -2 65 11 57 5 -3 9 0 9 5 0 6 -4 11 -10 11 -5 0 -10
14 -10 30 0 33 29 44 31 13 1 -10 6 -3 11 15 19 57 27 34 24 -70z m122 36 c-4
-3 -12 5 -18 18 -12 22 -12 22 6 6 10 -10 15 -20 12 -24z m-308 -14 c0 -22 -2
-40 -4 -40 -2 0 -6 18 -8 40 -2 22 0 40 4 40 5 0 8 -18 8 -40z m251 3 c0 -16
1 -16 8 1 7 19 8 19 16 0 14 -33 15 -48 2 -35 -15 15 -50 15 -41 -1 4 -6 3 -8
-3 -5 -12 8 -5 57 8 57 5 0 9 -8 10 -17z m-354 -55 c-3 -7 -5 -2 -5 12 0 14 2
19 5 13 2 -7 2 -19 0 -25z m1324 1 c-9 -22 -10 -22 -10 -3 -1 11 2 24 6 27 12
12 14 0 4 -24z m-991 -20 c0 -10 -4 -19 -10 -19 -5 0 -10 12 -10 26 0 14 4 23
10 19 6 -3 10 -15 10 -26z m-221 -46 c-1 -54 -4 -63 -12 -46 -9 20 -2 113 9
113 2 0 4 -30 3 -67z m1192 14 c-10 -9 -11 -8 -5 6 3 10 9 15 12 12 3 -3 0
-11 -7 -18z m-981 -27 c0 -5 -2 -10 -4 -10 -3 0 -8 5 -11 10 -3 6 -1 10 4 10
6 0 11 -4 11 -10z m-100 -25 c0 -8 -4 -17 -10 -20 -6 -4 -10 5 -10 20 0 15 4
24 10 20 6 -3 10 -12 10 -20z m-40 -104 c0 -5 -7 -11 -15 -15 -15 -5 -20 5 -8
17 9 10 23 9 23 -2z m-40 -24 c0 -21 -12 -28 -27 -15 -10 8 -20 8 -39 -1 -38
-17 -42 -13 -9 9 34 23 75 26 75 7z m1283 -7 c-3 -12 -8 -19 -11 -16 -5 6 5
36 12 36 2 0 2 -9 -1 -20z"/>
<path d="M7853 6629 c-25 -9 -30 -19 -10 -19 15 0 43 17 37 23 -3 3 -15 1 -27
-4z"/>
<path d="M7750 5912 c0 -12 19 -26 26 -19 2 2 -2 10 -11 17 -9 8 -15 8 -15 2z"/>
<path d="M7655 5822 c-31 -16 -81 -25 -157 -26 -66 -1 -35 -16 34 -16 56 0
161 31 173 51 9 13 -15 9 -50 -9z"/>
<path d="M7650 5704 c-36 -13 -77 -24 -91 -24 -34 0 -45 -27 -22 -52 14 -15
25 -18 53 -13 60 11 100 28 100 44 0 8 9 25 21 37 30 32 13 34 -61 8z"/>
<path d="M7708 5393 c7 -3 16 -2 19 1 4 3 -2 6 -13 5 -11 0 -14 -3 -6 -6z"/>
<path d="M7772 8093 c6 -7 19 -13 30 -13 10 0 16 -4 13 -10 -3 -5 3 -10 15
-10 13 0 19 -4 14 -12 -4 -7 -3 -8 5 -4 6 4 19 2 28 -6 12 -9 15 -9 9 -1 -5
10 1 11 26 6 18 -3 41 -10 51 -15 21 -11 23 -32 1 -24 -26 10 -5 -13 28 -30
35 -18 47 -11 30 16 -17 28 4 25 31 -4 12 -13 42 -47 67 -77 25 -29 53 -59 63
-68 20 -18 23 -36 5 -25 -7 4 -2 -5 12 -18 17 -17 27 -21 32 -14 5 7 8 7 8 0
0 -5 7 -19 16 -30 8 -10 12 -12 8 -4 -7 13 -5 13 9 1 15 -12 17 -11 17 3 0 9
-4 16 -10 16 -5 0 -10 5 -10 11 0 6 -6 17 -12 24 -7 8 -24 29 -38 47 -39 51
-133 141 -166 158 -16 8 -32 19 -36 25 -4 5 -8 6 -8 1 0 -5 -8 -2 -17 6 -37
33 -246 81 -221 51z m232 -112 c-8 -9 -22 12 -17 26 6 15 7 14 13 -3 4 -10 6
-21 4 -23z"/>
<path d="M7950 7961 c40 -39 80 -71 91 -71 16 0 -76 88 -98 95 -20 6 -20 3 7
-24z"/>
<path d="M8160 7979 c0 -4 12 -17 27 -26 15 -10 41 -34 58 -53 16 -19 38 -42
48 -52 9 -10 17 -24 17 -31 0 -7 9 -18 20 -25 11 -7 20 -19 20 -26 0 -11 40
-86 67 -125 2 -2 5 -2 8 1 9 8 -30 87 -51 104 -10 9 -13 13 -6 9 35 -18 5 26
-97 143 -50 58 -111 102 -111 81z"/>
<path d="M8049 7947 c7 -10 10 -17 7 -17 -4 0 2 -10 14 -22 11 -12 22 -19 25
-16 3 3 -1 12 -9 21 -8 8 -13 16 -11 19 2 2 -6 10 -18 17 -20 13 -21 13 -8 -2z"/>
<path d="M6885 7860 c-8 -13 15 -13 35 0 12 8 11 10 -7 10 -12 0 -25 -4 -28
-10z"/>
<path d="M8115 7854 c9 -9 19 -13 23 -10 3 4 0 11 -8 16 -24 15 -33 11 -15 -6z"/>
<path d="M7955 7850 c-3 -5 1 -10 9 -10 9 0 16 -4 16 -10 0 -5 5 -10 10 -10 6
0 5 8 -2 20 -14 22 -24 25 -33 10z"/>
<path d="M8040 7846 c0 -2 8 -10 18 -17 15 -13 16 -12 3 4 -13 16 -21 21 -21
13z"/>
<path d="M8150 7820 c0 -5 5 -10 11 -10 5 0 7 5 4 10 -3 6 -8 10 -11 10 -2 0
-4 -4 -4 -10z"/>
<path d="M8434 7809 c-3 -6 -1 -16 5 -22 9 -9 10 -7 5 8 -7 18 -6 19 12 5 18
-14 18 -14 5 3 -16 20 -18 20 -27 6z"/>
<path d="M8477 7753 c-12 -11 -8 -23 7 -23 8 0 17 -8 19 -17 4 -17 5 -17 6 0
0 10 -6 20 -14 23 -8 4 -12 10 -9 15 6 11 0 12 -9 2z"/>
<path d="M8210 7682 c0 -4 14 -23 31 -42 l30 -35 -22 43 c-21 38 -39 54 -39
34z"/>
<path d="M8142 7633 c7 -18 16 -33 20 -33 13 0 9 13 -12 40 l-20 25 12 -32z"/>
<path d="M8466 7632 c-7 -12 17 -66 40 -90 8 -7 12 -18 9 -23 -4 -5 -3 -9 2
-9 4 0 14 -14 22 -31 7 -16 15 -28 17 -26 2 2 -15 46 -39 97 -25 55 -46 89
-51 82z"/>
<path d="M8560 7614 c0 -13 18 -39 24 -34 2 3 -2 14 -10 24 -8 11 -14 16 -14
10z"/>
<path d="M8181 7585 c0 -5 6 -21 14 -35 8 -14 14 -20 14 -15 0 6 -6 21 -14 35
-8 14 -14 21 -14 15z"/>
<path d="M8180 7526 c0 -11 30 -66 36 -66 2 0 -3 15 -12 33 -19 36 -24 44 -24
33z"/>
<path d="M8606 7517 c3 -10 9 -15 12 -12 3 3 0 11 -7 18 -10 9 -11 8 -5 -6z"/>
<path d="M8622 7470 c7 -10 14 -18 15 -16 6 6 -9 36 -18 36 -5 0 -4 -9 3 -20z"/>
<path d="M8247 7447 c7 -36 42 -107 42 -87 1 8 -10 38 -24 65 -16 33 -22 40
-18 22z"/>
<path d="M8570 7341 c0 -5 5 -13 10 -16 6 -3 10 -2 10 4 0 5 -4 13 -10 16 -5
3 -10 2 -10 -4z"/>
<path d="M8624 7165 c5 -11 21 -56 36 -100 35 -102 64 -176 78 -201 11 -18 11
-18 12 3 0 12 -4 25 -10 28 -5 3 -10 19 -10 34 0 15 -4 31 -10 37 -5 5 -11 19
-13 31 -1 11 -8 27 -14 35 -5 7 -18 39 -28 70 -10 32 -25 63 -33 70 -14 11
-15 10 -8 -7z"/>
<path d="M8746 7164 c-3 -8 -2 -13 3 -10 5 3 15 -17 22 -46 11 -48 32 -99 95
-235 13 -28 29 -74 35 -102 12 -57 16 -61 44 -51 20 7 20 7 -1 14 -16 5 -23
18 -28 50 -4 23 -4 51 0 62 5 16 4 17 -6 4 -10 -13 -11 -11 -7 7 4 16 1 20
-11 16 -11 -5 -14 -2 -10 9 4 9 0 33 -7 54 -8 22 -14 35 -15 29 -1 -18 -22 26
-27 58 -3 18 -13 43 -23 57 -10 14 -25 42 -33 63 -18 41 -22 44 -31 21z"/>
<path d="M8533 7133 c3 -16 12 -53 21 -83 10 -30 19 -62 20 -70 4 -18 32 -88
46 -111 5 -9 12 -33 15 -53 4 -20 11 -36 16 -36 5 0 8 -3 7 -7 0 -5 6 -25 15
-45 10 -21 17 -41 17 -45 0 -19 -44 66 -68 131 -14 39 -29 73 -34 74 -4 2 -8
15 -8 28 0 13 -4 24 -9 24 -4 0 -7 -14 -5 -31 4 -35 76 -269 105 -341 10 -25
16 -54 12 -64 -5 -13 -3 -15 7 -9 10 6 12 4 7 -8 -3 -8 -2 -28 3 -44 5 -15 21
-66 36 -113 15 -47 30 -89 35 -94 11 -12 4 44 -11 90 -7 19 -9 42 -6 50 3 8 2
13 -3 10 -5 -3 -7 18 -6 47 2 29 -2 59 -9 67 -14 18 -40 90 -34 96 3 2 11 -14
18 -36 7 -22 17 -40 21 -40 5 0 2 19 -6 41 -18 49 -19 61 -3 35 17 -30 48
-119 48 -138 0 -10 4 -18 10 -18 5 0 6 8 3 18 -6 15 -5 15 10 3 15 -12 16 -10
10 20 -3 19 -14 44 -24 57 -10 13 -15 30 -12 38 3 8 0 14 -6 14 -7 0 -9 10 -5
26 4 16 3 25 -3 21 -5 -3 -15 4 -22 15 -11 18 -11 20 3 15 14 -6 14 -3 3 25
-7 17 -19 34 -27 36 -11 4 -10 -1 3 -21 11 -16 12 -25 5 -21 -13 5 -85 168
-94 214 -3 14 -17 52 -32 85 -15 33 -26 66 -24 73 2 8 -5 26 -15 40 -9 15 -16
35 -15 45 2 9 -2 17 -9 17 -7 0 -9 -10 -6 -27z"/>
<path d="M6432 6868 c-7 -7 -12 -19 -12 -27 0 -11 5 -8 16 7 18 25 15 39 -4
20z"/>
<path d="M8671 6830 c14 -31 19 -36 19 -24 0 6 -7 19 -16 30 -14 18 -14 18 -3
-6z"/>
<path d="M8780 6811 c0 -11 4 -22 9 -25 4 -3 6 6 3 19 -5 30 -12 33 -12 6z"/>
<path d="M8961 6674 c0 -11 3 -14 6 -6 3 7 2 16 -1 19 -3 4 -6 -2 -5 -13z"/>
<path d="M6471 6664 c0 -11 3 -14 6 -6 3 7 2 16 -1 19 -3 4 -6 -2 -5 -13z"/>
<path d="M8971 6634 c0 -11 3 -14 6 -6 3 7 2 16 -1 19 -3 4 -6 -2 -5 -13z"/>
<path d="M6491 6594 c0 -11 3 -14 6 -6 3 7 2 16 -1 19 -3 4 -6 -2 -5 -13z"/>
<path d="M8810 6431 c0 -5 5 -13 10 -16 6 -3 10 -2 10 4 0 5 -4 13 -10 16 -5
3 -10 2 -10 -4z"/>
<path d="M8796 6387 c3 -10 9 -15 12 -12 3 3 0 11 -7 18 -10 9 -11 8 -5 -6z"/>
<path d="M8811 6350 c0 -8 4 -24 9 -35 5 -13 9 -14 9 -5 0 8 -4 24 -9 35 -5
13 -9 14 -9 5z"/>
<path d="M9002 6270 c0 -19 2 -27 5 -17 2 9 2 25 0 35 -3 9 -5 1 -5 -18z"/>
<path d="M9008 6213 c-3 -10 1 -34 8 -53 l12 -35 0 41 c0 48 -12 76 -20 47z"/>
<path d="M6631 6084 c0 -11 3 -14 6 -6 3 7 2 16 -1 19 -3 4 -6 -2 -5 -13z"/>
<path d="M8892 6080 c0 -14 2 -19 5 -12 2 6 2 18 0 25 -3 6 -5 1 -5 -13z"/>
<path d="M9018 6056 c-11 -70 -10 -92 3 -79 5 5 9 37 7 69 l-3 59 -7 -49z"/>
<path d="M6602 6030 c0 -14 2 -19 5 -12 2 6 2 18 0 25 -3 6 -5 1 -5 -13z"/>
<path d="M8971 5988 c-1 -32 3 -58 8 -58 5 0 6 21 4 48 -7 70 -11 74 -12 10z"/>
<path d="M9026 5913 c-21 -68 -36 -81 -36 -33 0 17 -5 30 -11 30 -8 0 -9 -15
-4 -46 4 -32 3 -44 -4 -39 -6 3 -11 18 -12 33 0 15 -3 21 -6 15 -2 -7 3 -47
11 -89 19 -90 19 -87 6 -79 -5 3 -10 17 -10 31 0 13 -4 24 -10 24 -5 0 -10 -8
-10 -18 0 -10 -4 -22 -10 -28 -13 -13 -18 -47 -19 -134 -1 -54 -4 -71 -11 -60
-8 11 -10 6 -8 -20 1 -19 0 -51 -1 -70 -2 -29 -4 -31 -10 -15 -5 11 -6 73 -4
138 3 70 1 117 -5 117 -11 0 -22 -48 -22 -99 0 -20 -5 -81 -11 -136 -6 -55
-13 -125 -16 -155 -4 -38 -8 -49 -13 -35 -6 18 -7 17 -13 -5 -3 -14 -10 -70
-16 -125 -6 -55 -16 -130 -22 -167 -10 -66 -6 -122 12 -144 5 -6 10 -50 11
-97 2 -48 6 -87 9 -87 3 0 13 -6 22 -12 17 -13 42 -78 29 -77 -19 3 -32 -2
-32 -12 0 -5 5 -7 12 -3 8 5 9 2 5 -9 -3 -10 -3 -17 2 -17 5 0 11 -10 15 -23
4 -19 12 -22 45 -22 32 0 41 4 44 20 4 18 4 18 6 -2 0 -13 5 -23 9 -23 4 0 6
15 4 34 -2 18 -9 33 -15 33 -50 -1 -63 5 -74 32 -11 31 -4 54 13 43 6 -4 13
-15 17 -24 3 -10 14 -18 22 -18 14 0 15 8 10 48 -4 26 -14 58 -22 71 -9 14
-10 21 -3 16 9 -6 10 -1 5 16 -8 24 -11 41 -14 89 -2 22 -3 23 -10 6 -7 -19
-8 -19 -13 2 -4 12 -2 22 4 22 7 0 9 20 5 54 -4 39 -2 58 8 66 9 8 14 6 18 -9
3 -11 0 -22 -6 -24 -8 -2 -7 -11 4 -28 9 -13 19 -41 23 -61 11 -61 28 -46 24
22 -1 32 1 55 5 51 5 -5 9 -39 10 -75 1 -36 5 -66 9 -66 3 0 6 -14 6 -31 -1
-17 5 -35 13 -41 10 -6 10 -11 3 -14 -23 -10 6 -72 42 -89 37 -18 48 -19 39
-5 -3 6 3 10 15 10 18 0 20 5 16 44 -4 51 -12 66 -30 66 -14 0 -32 67 -22 78
3 3 6 -3 6 -14 0 -10 5 -26 10 -34 8 -11 9 -7 4 15 -12 59 -16 68 -24 56 -4
-8 -9 -1 -13 18 -4 17 -14 43 -24 57 -20 31 -32 166 -13 148 6 -6 22 -38 36
-70 l25 -59 -6 60 c-4 33 -9 76 -11 95 -9 80 -13 354 -5 340 4 -8 11 -71 14
-140 4 -69 13 -147 21 -175 9 -27 13 -61 10 -75 -4 -17 -3 -21 4 -12 7 11 11
7 16 -13 4 -15 5 -30 1 -33 -3 -3 -5 2 -5 11 0 10 -4 17 -9 17 -10 0 7 -91 20
-105 6 -5 9 -5 9 2 0 21 37 1 47 -25 10 -26 11 -25 13 18 l3 45 7 -40 c4 -22
8 -30 9 -18 0 12 6 25 13 29 7 5 9 2 5 -9 -3 -8 -1 -32 4 -52 8 -28 16 -37 39
-42 40 -7 54 -26 41 -51 -14 -26 -81 -38 -112 -21 -19 10 -25 9 -36 -7 -16
-22 -17 -34 -2 -34 6 0 17 -7 25 -15 21 -20 51 -19 63 3 6 9 11 11 11 5 0 -25
28 -12 39 17 16 46 43 39 70 -19 31 -64 26 -74 -25 -51 -51 24 -88 17 -80 -15
4 -16 -1 -25 -20 -36 -24 -13 -28 -12 -49 15 l-23 28 3 -48 c2 -27 4 -52 4
-56 1 -5 10 -8 21 -8 24 0 36 -40 21 -68 -15 -28 -14 -52 3 -52 7 0 21 -11 30
-25 14 -21 14 -29 4 -47 -7 -13 -17 -26 -21 -29 -8 -5 58 -52 75 -53 3 -1 10
-4 14 -9 14 -14 59 -7 71 12 10 16 16 17 52 8 34 -9 40 -15 35 -30 -4 -13 -2
-17 5 -13 6 4 11 16 11 27 0 11 4 18 9 15 4 -3 13 5 19 18 9 20 6 25 -18 39
-38 23 -68 21 -89 -4 -14 -17 -23 -20 -54 -14 -32 6 -38 12 -47 44 -19 68 -19
69 66 63 70 -4 76 -3 91 18 13 19 22 21 57 17 44 -6 106 16 106 37 0 7 -23 17
-50 22 -44 9 -54 8 -72 -8 -12 -10 -31 -18 -44 -18 -19 0 -24 7 -29 44 -4 25
-4 49 0 55 3 6 30 11 58 11 32 0 62 6 76 16 17 12 36 15 73 11 44 -6 53 -3 69
16 26 31 24 35 -23 42 -33 5 -53 1 -83 -15 -23 -12 -41 -16 -43 -10 -2 6 -24
8 -58 4 -39 -5 -58 -3 -71 7 -11 9 -14 10 -9 2 4 -7 2 -13 -3 -13 -20 0 -12
42 8 47 11 3 17 11 15 18 -4 8 6 16 25 20 17 4 31 10 31 14 0 4 17 7 38 7 20
0 91 3 157 8 142 9 167 1 120 -39 l-30 -25 40 7 c22 3 77 6 123 6 78 1 101 8
66 21 -9 4 -15 9 -12 12 6 6 58 -17 58 -25 0 -4 9 -7 20 -8 11 -1 20 2 20 7 0
5 20 -3 45 -17 45 -24 45 -24 45 -4 0 23 -39 44 -74 39 -12 -1 -31 4 -43 10
-13 7 -40 12 -60 12 -58 -1 -124 11 -117 21 11 18 -49 29 -154 29 -109 0 -235
-15 -240 -29 -4 -11 -72 0 -72 13 0 6 -5 4 -10 -4 -9 -13 -14 -10 -35 15 -16
19 -21 33 -15 40 6 7 9 14 7 16 -1 2 3 -1 9 -8 15 -17 56 -21 61 -6 2 6 -12
30 -32 52 -27 29 -35 46 -30 61 4 14 2 20 -8 20 -15 0 -27 20 -33 55 -3 19
-17 64 -35 110 -4 11 -10 34 -14 50 -9 40 -32 75 -51 75 -8 0 -12 -4 -9 -10 3
-5 2 -10 -3 -10 -5 0 -15 14 -22 30 -7 17 -16 30 -20 30 -4 0 -12 12 -19 26
-6 15 -14 24 -17 21 -3 -3 10 -36 29 -73 93 -184 121 -279 40 -136 -25 45 -49
82 -53 82 -7 0 18 -153 35 -223 6 -22 4 -26 -9 -21 -13 5 -15 2 -10 -12 4 -11
4 -16 -1 -12 -10 10 -25 96 -30 170 -2 32 -7 63 -12 70 -4 7 -9 22 -10 33 -8
94 -13 127 -26 152 -9 17 -17 65 -19 116 -1 48 -6 87 -10 87 -5 0 -8 9 -8 20
0 11 4 20 10 20 5 0 8 15 6 33 -2 17 -5 46 -6 62 -3 27 -3 27 -10 -10 -5 -31
-7 -20 -9 50 -1 50 -5 133 -9 185 l-7 95 -19 -62z m0 -257 l2 -151 -8 140 c-5
77 -11 154 -14 170 -5 26 -4 27 6 11 7 -12 12 -80 14 -170z m11 -238 c-2 -13
-4 -5 -4 17 -1 22 1 32 4 23 2 -10 2 -28 0 -40z m-30 -5 c-3 -10 -5 -4 -5 12
0 17 2 24 5 18 2 -7 2 -21 0 -30z m-50 -60 c-3 -10 -5 -4 -5 12 0 17 2 24 5
18 2 -7 2 -21 0 -30z m156 -146 c3 -8 -1 -14 -8 -14 -7 0 -11 6 -8 14 3 7 6
13 8 13 2 0 5 -6 8 -13z m7 -71 c11 -25 20 -60 19 -78 l-1 -33 -10 35 c-5 19
-14 40 -20 47 -5 7 -7 17 -3 23 3 5 1 10 -4 10 -6 0 -11 9 -11 20 0 30 8 24
30 -24z m-130 -99 c0 -10 -4 -15 -10 -12 -5 3 -10 18 -10 33 0 21 2 24 10 12
5 -8 10 -23 10 -33z m307 -19 c-3 -8 -6 -5 -6 6 -1 11 2 17 5 13 3 -3 4 -12 1
-19z m18 -88 c-9 -15 -27 -1 -21 17 3 8 2 12 -3 8 -11 -6 -20 15 -13 33 3 9
11 3 24 -17 11 -17 17 -35 13 -41z m-355 9 c0 -4 -4 -10 -9 -13 -5 -3 -11 8
-13 26 -5 28 -4 29 9 13 7 -11 13 -22 13 -26z m399 -82 c8 -10 7 -14 -4 -14
-8 0 -15 6 -15 14 0 7 2 13 4 13 2 0 9 -6 15 -13z m-275 -203 c3 -8 2 -12 -4
-9 -6 3 -10 10 -10 16 0 14 7 11 14 -7z m261 -139 c22 -7 39 -19 38 -24 -2 -6
3 -11 10 -11 8 0 7 -4 -3 -10 -12 -8 -11 -10 8 -10 17 0 22 -6 22 -25 0 -29
-23 -34 -40 -7 -11 16 -11 16 -6 0 4 -14 0 -18 -20 -18 -18 0 -27 8 -35 27 -6
15 -16 31 -22 35 -9 6 -9 8 1 8 6 0 12 7 12 15 0 8 -5 15 -11 15 -5 0 -7 -6
-3 -12 5 -9 2 -9 -9 1 -39 32 -9 40 58 16z m-75 -45 c0 -16 -2 -30 -4 -30 -2
0 -11 -3 -19 -6 -23 -8 -30 26 -10 47 26 26 33 23 33 -11z m13 -112 c3 -13 8
-45 11 -73 l6 -50 -20 55 c-11 30 -20 63 -20 73 0 25 17 21 23 -5z"/>
<path d="M8876 5797 c-9 -35 -7 -122 3 -111 11 11 20 123 10 129 -3 3 -9 -5
-13 -18z"/>
<path d="M9110 5761 c0 -11 4 -22 9 -25 4 -3 6 6 3 19 -5 30 -12 33 -12 6z"/>
<path d="M9092 5725 c0 -11 4 -31 8 -45 6 -20 8 -21 8 -5 0 11 -4 31 -8 45 -6
20 -8 21 -8 5z"/>
<path d="M9121 5660 c2 -57 3 -60 9 -25 6 39 6 39 12 10 5 -29 5 -29 7 -4 0
15 -6 40 -14 55 -15 28 -15 27 -14 -36z"/>
<path d="M9101 5594 c0 -11 3 -14 6 -6 3 7 2 16 -1 19 -3 4 -6 -2 -5 -13z"/>
<path d="M9131 5564 c0 -11 3 -14 6 -6 3 7 2 16 -1 19 -3 4 -6 -2 -5 -13z"/>
<path d="M8782 5540 c0 -14 2 -19 5 -12 2 6 2 18 0 25 -3 6 -5 1 -5 -13z"/>
<path d="M6880 5503 c0 -12 5 -25 10 -28 13 -8 13 15 0 35 -8 12 -10 11 -10
-7z"/>
<path d="M8661 5477 c0 -10 -11 -39 -22 -65 -12 -26 -22 -58 -23 -72 -1 -14
-4 -30 -8 -35 -8 -14 -23 -142 -15 -135 4 3 16 44 27 90 12 47 28 111 36 144
8 32 13 66 11 75 -4 13 -5 13 -6 -2z"/>
<path d="M9191 5334 c1 -21 16 -47 21 -38 4 5 0 18 -8 29 -8 10 -14 15 -13 9z"/>
<path d="M9260 5315 c0 -5 5 -17 10 -25 5 -8 10 -10 10 -5 0 6 -5 17 -10 25
-5 8 -10 11 -10 5z"/>
<path d="M9291 5280 c-1 -18 16 -46 23 -40 2 3 -2 16 -9 30 -8 15 -14 19 -14
10z"/>
<path d="M9231 5244 c0 -11 3 -14 6 -6 3 7 2 16 -1 19 -3 4 -6 -2 -5 -13z"/>
<path d="M8722 5215 c0 -16 2 -22 5 -12 2 9 2 23 0 30 -3 6 -5 -1 -5 -18z"/>
<path d="M9350 5178 c0 -9 5 -20 10 -23 13 -8 13 5 0 25 -8 13 -10 13 -10 -2z"/>
<path d="M9327 5130 c9 -16 22 -30 27 -30 5 0 20 -10 33 -22 22 -21 24 -21 17
-3 -7 18 -6 19 11 5 17 -14 18 -14 6 8 -11 21 -22 26 -47 23 -6 -1 -19 10 -28
24 -23 36 -41 31 -19 -5z"/>
<path d="M8701 5064 c0 -11 3 -14 6 -6 3 7 2 16 -1 19 -3 4 -6 -2 -5 -13z"/>
<path d="M9350 5073 c0 -18 25 -73 34 -73 5 0 17 -7 26 -15 20 -18 90 -9 90
12 0 9 -6 12 -18 9 -12 -4 -26 1 -37 14 -10 11 -26 18 -35 15 -11 -3 -21 4
-30 20 -12 23 -30 34 -30 18z"/>
<path d="M8722 5003 c-24 -80 -32 -120 -32 -168 -1 -47 -37 -206 -53 -232 -4
-6 -4 -19 0 -29 4 -11 3 -15 -4 -11 -14 9 -34 -48 -26 -70 4 -10 2 -14 -4 -10
-11 7 -23 -13 -23 -39 0 -10 13 -14 45 -14 25 0 46 3 46 8 1 4 3 17 4 28 1 12
5 26 8 31 4 6 9 35 12 64 3 30 8 71 10 92 3 20 1 37 -4 37 -5 0 -11 9 -14 21
-4 15 -2 18 7 10 14 -12 14 -15 16 77 1 34 6 62 10 62 8 0 24 169 17 176 -2 2
-9 -13 -15 -33z"/>
<path d="M8657 4885 c-4 -27 -10 -67 -13 -89 -4 -25 -3 -36 4 -32 11 7 26 122
20 152 -2 10 -7 -3 -11 -31z"/>
<path d="M9420 4917 c0 -8 18 -22 39 -32 34 -15 46 -16 90 -5 67 16 66 33 -2
27 -36 -4 -58 -1 -71 9 -25 18 -56 18 -56 1z"/>
<path d="M9723 4899 c14 -8 22 -8 30 0 8 8 3 11 -18 11 -26 -1 -28 -2 -12 -11z"/>
<path d="M9562 4831 c-86 -19 -118 -35 -90 -46 8 -3 46 1 84 10 38 9 96 19
129 22 33 3 62 7 64 9 2 2 10 -1 18 -7 9 -9 13 -8 13 0 0 6 -3 11 -7 12 -5 0
-19 2 -33 3 -14 2 -41 5 -60 9 -20 3 -72 -2 -118 -12z"/>
<path d="M8737 4818 c-3 -13 -3 -39 1 -58 4 -19 2 -68 -4 -110 -12 -73 -8 -89
18 -90 11 0 20 98 14 148 -4 26 -9 65 -12 86 -5 48 -10 54 -17 24z"/>
<path d="M9840 4830 c-8 -5 -1 -11 21 -19 43 -13 113 -21 102 -11 -15 15 -110
38 -123 30z"/>
<path d="M8170 4811 c0 -37 132 -192 149 -175 3 3 -8 15 -24 28 -15 12 -25 28
-21 34 3 6 1 14 -5 18 -8 4 -9 3 -5 -4 4 -7 2 -12 -3 -12 -6 0 -11 7 -11 15 0
8 -7 15 -15 15 -8 0 -16 8 -16 18 -2 33 -4 37 -26 60 -21 20 -23 21 -23 3z"/>
<path d="M8622 4775 c0 -16 2 -22 5 -12 2 9 2 23 0 30 -3 6 -5 -1 -5 -18z"/>
<path d="M6900 4780 c0 -5 7 -7 15 -4 8 4 15 8 15 10 0 2 -7 4 -15 4 -8 0 -15
-4 -15 -10z"/>
<path d="M10045 4780 c3 -5 8 -10 11 -10 2 0 4 5 4 10 0 6 -5 10 -11 10 -5 0
-7 -4 -4 -10z"/>
<path d="M9124 4765 c-3 -8 -4 -20 -2 -27 6 -16 58 -19 58 -2 0 7 6 15 13 17
9 4 8 8 -3 16 -10 7 -19 6 -29 -2 -12 -9 -13 -9 -7 1 4 7 1 12 -9 12 -8 0 -18
-7 -21 -15z"/>
<path d="M10155 4761 c-9 -8 6 -20 19 -15 8 3 17 1 21 -5 3 -6 10 -11 16 -11
5 0 4 9 -3 19 -10 17 -41 24 -53 12z"/>
<path d="M6818 4731 c-64 -17 -96 -31 -69 -31 21 0 125 32 136 41 5 5 7 9 5 8
-3 0 -35 -9 -72 -18z"/>
<path d="M8640 4740 c0 -5 -7 -10 -16 -10 -13 0 -14 -3 -5 -13 6 -8 9 -33 6
-57 -2 -24 0 -39 4 -34 9 9 23 124 15 124 -2 0 -4 -4 -4 -10z"/>
<path d="M8539 4688 c-5 -79 -26 -168 -40 -168 -11 0 1 109 18 157 5 14 1 13
-15 -6 -12 -13 -24 -32 -27 -42 -4 -11 -12 -19 -20 -19 -8 0 -17 -9 -20 -20
-4 -11 -11 -18 -16 -15 -5 4 -9 -1 -9 -10 0 -11 5 -15 15 -11 10 3 15 -1 16
-12 0 -10 3 -12 6 -4 7 17 23 5 23 -18 0 -10 -15 -29 -32 -41 -18 -13 -39 -29
-47 -36 -7 -8 -32 -23 -55 -35 -22 -11 -52 -29 -65 -39 -13 -10 -28 -16 -34
-12 -5 3 -7 1 -3 -5 3 -6 -3 -17 -14 -25 -11 -7 -17 -17 -12 -22 4 -5 1 -5 -5
-1 -14 8 -153 -98 -153 -116 0 -20 109 0 144 27 18 14 38 25 43 25 14 0 34 25
27 33 -3 3 -14 2 -23 -4 -43 -25 -111 -47 -116 -39 -4 6 0 10 8 10 18 0 112
46 172 85 83 53 149 90 159 87 4 -2 24 2 42 8 23 8 34 18 34 31 0 13 4 17 11
13 9 -5 10 11 5 60 -4 36 -7 93 -7 126 0 57 -8 85 -10 38z"/>
<path d="M6698 4693 c7 -3 16 -2 19 1 4 3 -2 6 -13 5 -11 0 -14 -3 -6 -6z"/>
<path d="M10324 4562 c14 -28 76 -85 84 -78 8 8 -23 56 -40 61 -10 4 -18 10
-18 15 0 5 -9 14 -21 20 -20 11 -20 11 -5 -18z"/>
<path d="M8720 4537 c1 -12 2 -31 1 -42 -1 -17 -3 -18 -11 -5 -8 12 -10 9 -10
-11 0 -16 7 -29 17 -33 10 -4 14 -4 11 0 -11 10 35 42 51 36 11 -4 13 -1 8 12
-4 10 -7 23 -7 30 0 6 -14 17 -31 23 -28 11 -30 10 -29 -10z"/>
<path d="M9082 4521 c-9 -25 -8 -31 3 -31 7 0 20 -2 28 -5 10 -5 14 2 13 27
-1 45 -30 50 -44 9z"/>
<path d="M9910 4544 c-14 -2 -56 -9 -95 -15 -38 -6 -79 -12 -91 -15 -25 -4
-91 -60 -83 -69 4 -3 53 4 110 16 174 37 353 33 477 -11 31 -11 57 -18 59 -16
6 6 -38 56 -60 67 -50 27 -249 54 -317 43z"/>
<path d="M9040 4469 c0 -5 5 -7 10 -4 6 3 10 8 10 11 0 2 -4 4 -10 4 -5 0 -10
-5 -10 -11z"/>
<path d="M8713 4388 c-33 -16 -31 -48 3 -46 30 3 48 22 40 43 -6 17 -13 18
-43 3z"/>
<path d="M9030 4375 c-14 -17 -7 -31 19 -38 19 -5 19 -3 6 17 -9 13 -12 26 -8
29 3 4 4 7 1 7 -3 0 -11 -7 -18 -15z"/>
<path d="M8781 4371 c-18 -12 -5 -48 20 -56 26 -9 28 -6 17 33 -9 34 -14 37
-37 23z"/>
<path d="M9107 4349 c15 -31 41 -45 57 -29 7 7 7 10 -1 10 -6 0 -13 8 -16 19
-2 10 -15 20 -29 23 -24 4 -24 4 -11 -23z"/>
<path d="M9850 4365 c-107 -20 -144 -41 -121 -69 9 -10 21 -11 49 -5 20 5 51
11 67 14 17 2 50 7 73 10 92 13 294 -20 424 -70 11 -5 14 1 10 22 -3 23 -13
32 -55 50 -77 32 -113 41 -207 53 -104 12 -156 11 -240 -5z m-95 -63 c-3 -3
-11 0 -18 7 -9 10 -8 11 6 5 10 -3 15 -9 12 -12z"/>
<path d="M8902 4329 c4 -29 25 -36 23 -7 -1 12 -7 24 -14 26 -8 3 -12 -4 -9
-19z"/>
<path d="M8385 4321 c-39 -10 -75 -29 -75 -41 0 -6 43 -10 100 -10 95 0 101 1
109 23 10 25 4 38 -8 18 -7 -10 -10 -9 -14 3 -7 17 -57 20 -112 7z"/>
<path d="M8574 4320 c-21 -8 -39 -38 -29 -48 3 -3 22 0 44 6 44 14 65 52 28
51 -12 0 -31 -4 -43 -9z"/>
<path d="M9635 4319 c-4 -5 -12 -8 -18 -6 -20 7 -46 -12 -63 -45 l-16 -31 29
8 c15 4 37 8 48 10 11 1 24 3 28 4 4 0 2 11 -4 24 l-11 22 20 -21 c21 -23 72
-23 72 0 -1 36 -68 64 -85 35z"/>
<path d="M8045 4291 c-31 -20 -110 -99 -104 -105 2 -2 14 -7 26 -10 23 -7 29
-3 118 92 38 41 38 42 15 42 -14 0 -38 -9 -55 -19z"/>
<path d="M6236 4293 c-12 -12 -6 -43 9 -43 8 0 15 9 15 19 0 21 -13 34 -24 24z"/>
<path d="M8603 4225 c-22 -24 -15 -30 37 -31 55 -1 54 -1 40 27 -13 23 -59 25
-77 4z"/>
<path d="M8700 4222 c0 -23 35 -57 44 -43 10 15 -12 61 -29 61 -8 0 -15 -8
-15 -18z"/>
<path d="M9047 4211 c-11 -45 74 -69 108 -31 10 11 21 17 26 15 4 -3 10 -1 14
5 7 11 3 12 -60 15 -22 1 -50 5 -61 9 -17 6 -22 3 -27 -13z"/>
<path d="M10500 4221 c0 -5 7 -15 17 -22 15 -13 15 -12 4 9 -12 23 -21 28 -21
13z"/>
<path d="M6665 4199 c-7 -22 7 -39 33 -39 7 0 34 -11 61 -24 47 -24 162 -56
202 -56 11 0 31 11 45 25 31 31 35 31 142 0 130 -37 273 -55 507 -65 116 -5
218 -12 227 -15 16 -6 38 19 38 43 0 6 -60 13 -137 16 -270 12 -536 44 -642
76 -80 25 -85 25 -115 -5 -15 -15 -36 -25 -53 -25 -50 0 -152 29 -213 60 -71
36 -86 37 -95 9z"/>
<path d="M8767 4200 c6 -24 35 -45 74 -54 23 -5 27 -2 32 20 5 28 -7 36 -75
48 -33 6 -36 5 -31 -14z"/>
<path d="M9021 4204 c0 -11 3 -14 6 -6 3 7 2 16 -1 19 -3 4 -6 -2 -5 -13z"/>
<path d="M9910 4201 c0 -5 -9 -7 -19 -4 -11 3 -30 -2 -43 -12 l-23 -16 28 7
c18 4 27 2 27 -6 0 -6 -5 -8 -11 -4 -7 4 -10 1 -7 -7 4 -11 44 -16 54 -6 10
10 14 57 5 57 -6 0 -11 -4 -11 -9z"/>
<path d="M9942 4185 c3 -13 0 -26 -6 -29 -6 -2 0 -5 14 -5 14 -1 87 -8 162
-16 115 -12 148 -19 200 -45 77 -37 102 -39 93 -7 -10 31 -10 31 -100 67 -63
25 -108 35 -210 46 -170 18 -158 18 -153 -11z"/>
<path d="M10480 4202 c0 -14 30 -71 41 -77 15 -10 10 12 -12 49 -21 36 -29 43
-29 28z"/>
<path d="M8539 4181 c-63 -29 -90 -61 -51 -61 19 0 101 65 92 73 -3 2 -21 -3
-41 -12z"/>
<path d="M8204 4170 c-16 -3 -43 -15 -59 -26 l-29 -22 159 -7 159 -8 19 24 19
24 -63 7 c-110 11 -173 14 -205 8z"/>
<path d="M8910 4172 c0 -10 22 -32 32 -32 4 0 8 9 8 20 0 13 -7 20 -20 20 -11
0 -20 -4 -20 -8z"/>
<path d="M9750 4169 c-19 -5 -78 -18 -130 -28 -117 -24 -145 -35 -154 -56 -10
-27 -7 -35 14 -35 14 0 20 7 21 23 1 16 2 18 6 5 6 -24 32 -23 146 6 53 14
116 28 140 31 46 7 57 26 31 52 -14 15 -24 15 -74 2z"/>
<path d="M6553 4145 c-40 -8 -78 -17 -84 -21 -15 -9 -182 -33 -191 -27 -5 2
-8 13 -8 24 0 28 -75 28 -83 -1 -5 -19 4 -23 83 -33 8 -1 16 -12 18 -23 3 -19
7 -20 65 -12 34 4 87 14 117 22 30 8 81 17 113 21 38 4 57 11 57 20 0 7 3 20
6 29 7 19 5 19 -93 1z"/>
<path d="M8513 4070 c-22 -16 -64 -39 -94 -50 -57 -22 -96 -46 -88 -55 10 -9
85 18 139 50 54 33 123 46 160 32 26 -11 140 -35 140 -30 0 3 -7 17 -17 33
-13 22 -28 30 -71 39 -90 18 -124 14 -169 -19z"/>
<path d="M9137 4080 c-14 -11 -31 -20 -37 -20 -7 0 -19 -8 -26 -17 -12 -17
-13 -16 -23 7 l-10 25 0 -28 c-1 -16 3 -26 9 -22 6 3 10 1 10 -6 0 -7 6 -4 14
7 13 17 15 18 21 2 6 -16 9 -16 34 3 25 19 29 19 65 4 29 -13 41 -14 46 -5 6
9 14 6 30 -10 28 -28 38 -18 11 12 -12 12 -24 32 -27 43 -7 29 -82 32 -117 5z"/>
<path d="M9348 4078 c-9 -5 -4 -16 16 -37 33 -34 40 -33 54 8 10 28 9 29 -24
33 -19 2 -40 1 -46 -4z"/>
<path d="M6631 4048 c-9 -25 -6 -27 169 -84 95 -30 121 -30 159 2 35 29 36 29
181 -11 135 -38 261 -54 470 -60 181 -5 197 -4 224 14 l29 19 -64 6 c-35 4
-131 8 -214 10 -158 5 -358 33 -455 66 -79 26 -130 35 -130 21 0 -6 -16 -19
-35 -28 -31 -15 -43 -15 -96 -4 -33 6 -93 25 -134 41 -88 36 -93 36 -104 8z"/>
<path d="M7940 4045 c-13 -14 -18 -25 -12 -25 7 0 12 5 12 11 0 8 4 8 13 1 14
-12 47 -1 66 22 12 14 10 16 -21 16 -24 0 -42 -8 -58 -25z"/>
<path d="M8771 4047 c17 -32 19 -33 19 -10 0 12 -7 23 -15 27 -13 5 -14 2 -4
-17z"/>
<path d="M8810 4029 c0 -10 5 -21 10 -24 6 -3 10 -1 10 5 0 6 10 4 25 -6 23
-15 27 -15 51 0 38 26 25 40 -39 42 -49 1 -57 -1 -57 -17z"/>
<path d="M9320 4028 c0 -4 4 -8 9 -8 6 0 12 4 15 8 3 5 -1 9 -9 9 -8 0 -15 -4
-15 -9z"/>
<path d="M9853 4020 c-40 -11 -100 -24 -135 -30 -35 -7 -69 -17 -77 -23 -7 -6
-21 -12 -30 -12 -9 -1 -31 -2 -48 -3 -24 -2 -33 -7 -33 -19 0 -15 -2 -15 -9
-4 -5 8 -16 11 -26 8 -9 -4 -14 -10 -11 -15 2 -4 -11 -6 -31 -4 -23 3 -38 0
-44 -9 -11 -18 -12 -59 -1 -59 20 0 112 31 111 38 -3 18 2 24 14 14 14 -12
171 14 292 48 45 13 102 20 156 20 l84 1 -55 34 c-62 40 -60 40 -157 15z"/>
<path d="M10024 4015 c24 -18 39 -20 34 -2 -3 6 -15 13 -29 15 -23 2 -23 2 -5
-13z"/>
<path d="M10067 4013 c16 -41 36 -50 126 -57 82 -7 128 -20 170 -49 14 -10 19
-9 27 3 17 27 10 34 -58 67 -45 22 -88 34 -132 38 -36 3 -82 8 -103 11 -33 5
-36 4 -30 -13z"/>
<path d="M7993 4010 c-13 -5 -23 -14 -23 -20 0 -5 -6 -10 -14 -10 -8 0 -18 -4
-21 -10 -4 -6 6 -7 25 -4 16 4 95 1 175 -6 l144 -12 30 23 c35 28 37 34 14 35
-10 1 -83 4 -163 7 -87 4 -154 3 -167 -3z"/>
<path d="M10466 4007 c3 -10 9 -15 12 -12 3 3 0 11 -7 18 -10 9 -11 8 -5 -6z"/>
<path d="M9398 3996 c-10 -7 -21 -28 -24 -46 l-7 -32 27 17 c29 19 31 26 14
43 -9 9 -8 12 5 12 9 0 17 5 17 10 0 13 -11 12 -32 -4z"/>
<path d="M6162 3968 c3 -20 12 -25 68 -34 36 -7 69 -18 74 -26 7 -11 20 -13
60 -7 95 14 228 38 231 41 1 2 6 14 10 27 7 24 7 24 -53 18 -33 -4 -79 -11
-103 -16 -24 -6 -68 -15 -98 -20 -47 -8 -54 -7 -58 9 -5 18 -47 30 -106 30
-24 0 -28 -4 -25 -22z"/>
<path d="M10512 3945 c0 -16 2 -22 5 -12 2 9 2 23 0 30 -3 6 -5 -1 -5 -18z"/>
<path d="M8498 3950 c-14 -4 -58 -24 -97 -43 -111 -56 -157 -62 -344 -49 -234
16 -245 15 -279 -13 l-30 -25 56 0 c38 0 56 4 56 13 0 9 2 9 8 0 10 -15 57
-23 197 -30 104 -5 130 -3 199 16 43 12 91 30 105 40 38 27 121 49 169 45 39
-3 42 -1 42 20 0 34 -27 43 -82 26z"/>
<path d="M8597 3943 c-19 -18 -5 -43 31 -53 96 -27 212 -44 223 -33 23 23 1
40 -68 53 -37 6 -90 18 -117 26 -57 16 -60 16 -69 7z"/>
<path d="M8908 3923 c-8 -10 -18 -26 -21 -35 -5 -15 -3 -16 19 -6 19 9 33 9
58 0 44 -16 46 -16 46 13 0 42 -72 62 -102 28z"/>
<path d="M9112 3925 c-33 -24 -11 -49 36 -42 25 5 37 1 50 -14 9 -10 29 -19
44 -19 15 0 31 -7 36 -16 13 -24 32 -8 32 25 0 43 -14 51 -150 77 -14 3 -35
-2 -48 -11z"/>
<path d="M10400 3910 c-10 -18 -9 -22 9 -27 12 -3 21 -10 21 -16 0 -5 18 -29
40 -53 22 -24 40 -42 40 -39 0 17 -56 117 -75 135 l-23 22 -12 -22z"/>
<path d="M6596 3898 c-9 -36 -8 -38 22 -38 15 0 65 -14 111 -30 98 -35 139
-37 175 -9 33 26 80 23 220 -15 100 -26 321 -51 461 -51 54 0 78 5 100 20 l30
20 -160 7 c-183 8 -350 31 -439 59 -102 32 -147 34 -187 10 -47 -29 -80 -27
-203 14 -59 19 -111 35 -115 35 -5 0 -11 -10 -15 -22z"/>
<path d="M9030 3890 c0 -5 5 -10 10 -10 6 0 10 5 10 10 0 6 -4 10 -10 10 -5 0
-10 -4 -10 -10z"/>
<path d="M9331 3839 c1 -30 1 -76 1 -103 l-2 -49 -22 20 c-13 11 -28 18 -35
16 -7 -2 -39 8 -72 23 -53 23 -65 25 -102 16 -22 -6 -54 -9 -70 -7 -24 3 -32
0 -39 -21 -14 -35 -14 -34 24 -34 24 0 36 5 39 18 4 13 5 13 6 2 1 -13 12 -15
60 -12 48 3 63 0 78 -16 26 -27 79 -45 109 -38 17 5 23 3 19 -4 -3 -5 18 -1
47 11 29 12 63 24 76 27 25 5 28 20 10 45 -12 15 -17 15 -60 2 -53 -16 -55
-14 -39 43 6 21 6 32 0 32 -6 0 -9 16 -7 37 2 24 -2 38 -11 41 -10 3 -13 -8
-10 -49z"/>
<path d="M9920 3860 c-64 -7 -208 -43 -243 -62 -10 -5 -22 -6 -27 -3 -11 7
-190 -35 -190 -45 0 -4 8 -18 18 -30 15 -18 22 -21 38 -12 10 5 44 13 74 17
60 7 133 26 223 56 69 23 172 26 302 10 50 -6 125 -15 168 -20 64 -8 82 -14
102 -35 13 -14 29 -26 35 -26 5 0 10 -6 10 -13 0 -7 16 -28 35 -47 31 -30 35
-32 35 -13 0 22 -55 103 -70 103 -6 0 -10 7 -10 15 0 9 -8 19 -17 22 -10 4
-30 17 -46 29 -28 24 -41 26 -227 44 -63 6 -122 13 -130 14 -8 2 -44 0 -80 -4z"/>
<path d="M6100 3821 c0 -19 39 -31 102 -31 55 0 128 -21 128 -37 0 -11 7 -14
23 -10 12 3 56 10 97 17 123 19 120 18 120 45 0 18 -5 25 -19 25 -22 0 -188
-28 -214 -36 -13 -4 -20 0 -24 14 -5 21 -58 32 -160 32 -45 0 -53 -3 -53 -19z"/>
<path d="M8415 3800 c-16 -4 -55 -19 -85 -32 -116 -52 -320 -82 -430 -64 -140
24 -207 27 -255 10 -28 -9 -54 -20 -60 -24 -30 -24 -101 -32 -199 -21 -175 20
-248 32 -338 57 -104 29 -112 29 -163 4 -51 -25 -73 -24 -165 1 -103 29 -154
30 -158 4 -2 -17 9 -23 90 -43 106 -26 184 -28 212 -7 27 21 61 19 170 -9 51
-14 161 -32 243 -41 l149 -16 79 25 c86 28 159 32 260 16 192 -30 298 -18 540
61 66 21 138 39 161 39 22 0 97 -12 165 -26 135 -29 177 -32 221 -13 17 7 47
9 73 6 38 -6 46 -3 55 13 8 15 6 21 -11 31 -27 14 -80 14 -108 0 -35 -19 -92
-16 -212 12 -117 27 -178 32 -234 17z"/>
<path d="M9888 3689 c-43 -4 -95 -17 -117 -28 -22 -12 -72 -26 -110 -33 -39
-7 -71 -16 -71 -20 0 -4 12 -14 28 -22 16 -9 21 -15 11 -16 -8 0 -24 7 -35 15
-29 22 -92 18 -159 -11 -108 -46 -123 -49 -143 -31 -10 10 -27 17 -37 17 -10
0 -27 7 -37 16 -14 13 -41 17 -125 19 -69 1 -125 7 -153 17 -36 13 -56 14
-100 6 -61 -11 -123 -6 -220 17 -36 8 -99 18 -140 21 -79 7 -58 11 -451 -88
l-126 -32 -195 23 -194 22 -81 -20 c-45 -12 -104 -21 -132 -21 -68 0 -235 26
-329 50 -69 18 -112 18 -137 0 -22 -16 -73 -18 -135 -5 -36 7 -85 15 -110 17
-43 3 -45 1 -48 -25 -3 -21 1 -27 16 -27 11 0 66 -5 122 -11 89 -9 107 -8 137
6 32 16 40 15 154 -9 158 -34 271 -41 384 -24 80 13 107 12 245 -3 208 -24
296 -24 362 0 89 32 404 101 463 101 18 0 84 -10 146 -22 83 -16 143 -22 219
-20 77 2 118 -2 150 -13 25 -9 92 -19 150 -22 78 -4 113 -10 136 -24 17 -10
39 -19 47 -19 9 0 21 -9 27 -19 10 -19 13 -18 88 18 51 26 113 46 187 61 61
12 135 32 165 45 35 15 95 27 166 35 97 10 124 9 235 -9 68 -11 154 -22 190
-26 54 -5 70 -11 92 -35 15 -15 27 -37 27 -47 0 -16 43 -73 55 -73 18 0 -2 46
-35 85 -22 25 -40 51 -40 57 0 6 -15 25 -34 43 -32 30 -41 33 -128 40 -51 4
-129 13 -173 21 -87 15 -93 15 -207 3z"/>
<path d="M6077 3671 c-3 -11 -2 -23 1 -25 4 -2 60 -7 126 -11 131 -7 146 -11
146 -31 0 -17 28 -17 120 0 60 10 65 13 68 39 4 32 3 32 -108 11 -84 -15 -90
-14 -102 18 -2 4 -57 10 -124 14 -118 7 -121 6 -127 -15z"/>
<path d="M6087 3544 c-4 -4 -7 -15 -7 -24 0 -17 34 -24 234 -45 46 -5 59 -11
63 -26 5 -17 11 -19 52 -13 73 11 91 20 91 49 0 29 -3 29 -88 11 -66 -13 -72
-12 -72 14 0 15 -16 18 -112 24 -62 4 -122 9 -133 12 -11 3 -24 2 -28 -2z"/>
<path d="M9857 3515 c-62 -9 -116 -23 -145 -38 -26 -13 -81 -29 -122 -36 -111
-18 -176 -38 -229 -71 -56 -35 -61 -36 -61 -12 0 24 -87 49 -220 62 -58 5
-127 16 -153 25 -27 8 -96 17 -155 21 -59 3 -138 12 -177 19 -143 28 -226 29
-347 6 -62 -12 -139 -26 -170 -31 -32 -6 -108 -27 -169 -47 l-113 -36 -105 12
c-58 7 -149 17 -201 23 -102 12 -150 13 -330 9 -84 -2 -141 3 -210 17 -76 16
-122 19 -230 15 -186 -5 -200 -8 -200 -39 0 -22 3 -24 38 -18 84 13 289 9 393
-8 63 -11 160 -18 237 -18 72 0 209 -9 304 -20 244 -29 296 -28 388 10 117 48
364 94 500 93 41 -1 127 -8 190 -17 63 -8 158 -20 210 -26 52 -6 128 -19 170
-30 41 -10 107 -21 145 -25 103 -9 184 -34 202 -61 14 -22 17 -23 41 -9 15 8
38 24 52 35 15 12 72 30 140 45 63 14 138 37 165 50 94 46 376 71 475 42 30
-9 104 -23 164 -32 60 -9 113 -18 118 -21 18 -12 6 29 -16 51 -18 18 -38 24
-92 29 -38 3 -112 15 -164 26 -108 23 -182 24 -323 5z"/>
<path d="M5291 3403 c-1 -6 -4 -20 -7 -30 -5 -17 -5 -17 6 0 6 10 9 23 6 30
-3 9 -5 9 -5 0z"/>
<path d="M6103 3394 c-22 -9 -31 -19 -27 -29 7 -17 31 -19 91 -5 32 8 51 6 85
-6 23 -9 65 -20 91 -24 47 -6 48 -6 45 19 -3 24 -7 26 -73 33 -38 3 -83 11
-98 17 -37 14 -74 13 -114 -5z"/>
<path d="M10005 3364 c-16 -2 -73 -9 -125 -15 -107 -11 -191 -32 -235 -58 -16
-10 -57 -23 -90 -30 -121 -25 -174 -43 -180 -61 -8 -26 -33 -32 -59 -15 -24
16 -163 48 -256 60 -30 4 -91 16 -135 26 -150 35 -479 79 -591 79 -177 0 -348
-35 -554 -115 -50 -19 -108 -16 -505 25 -345 36 -462 43 -587 38 -139 -6 -181
-19 -186 -57 -3 -20 -1 -22 15 -15 10 4 99 10 198 12 153 3 222 -1 455 -28
151 -17 338 -34 415 -37 134 -5 143 -5 200 20 138 58 371 107 507 107 93 0
459 -51 607 -84 58 -14 126 -27 151 -31 87 -13 255 -56 277 -70 29 -19 33 -19
33 3 0 23 46 45 145 71 39 10 97 30 130 44 181 77 515 92 692 32 24 -8 55 -15
69 -15 14 0 42 -9 64 -20 22 -11 42 -20 45 -20 3 0 5 15 5 33 0 30 -4 35 -37
45 -21 6 -67 16 -103 22 -36 5 -92 18 -125 29 -61 19 -185 32 -240 25z"/>
<path d="M5291 3335 c0 -11 4 -29 9 -40 8 -18 9 -18 9 5 0 14 -4 32 -9 40 -8
12 -10 12 -9 -5z"/>
<path d="M6430 3331 c-26 -7 -39 -36 -22 -53 6 -6 27 -7 51 -3 37 6 41 10 41
36 0 31 -15 35 -70 20z"/>
<path d="M6235 3275 c-33 -8 -78 -17 -100 -21 -55 -9 -75 -21 -75 -45 0 -15 5
-19 18 -15 14 5 302 55 322 56 12 1 -77 39 -90 39 -8 0 -42 -7 -75 -14z"/>
<path d="M8105 3190 c-27 -5 -74 -18 -105 -29 -30 -11 -109 -34 -175 -50 -66
-17 -139 -36 -163 -43 -35 -10 -78 -9 -240 5 -108 10 -244 25 -302 32 -246 34
-490 36 -595 5 -42 -13 -55 -24 -55 -52 0 -16 4 -16 53 -1 80 24 396 13 725
-26 219 -25 277 -29 345 -22 123 14 274 49 347 81 157 69 414 60 850 -30 303
-62 513 -111 543 -125 24 -12 27 -12 27 4 0 42 128 111 253 137 40 8 94 21
120 29 111 33 268 42 521 31 146 -7 193 -17 213 -48 11 -18 54 -41 61 -33 9 9
-74 83 -108 97 -14 6 -63 14 -110 19 -47 5 -105 12 -130 15 -101 13 -297 2
-420 -25 -112 -24 -347 -107 -386 -137 -17 -13 -33 -21 -35 -19 -7 6 -612 133
-714 149 -237 37 -436 51 -520 36z"/>
<path d="M6430 3163 c-109 -17 -286 -56 -319 -69 -40 -16 -58 -38 -41 -49 6
-3 60 5 122 19 62 14 147 28 188 32 84 7 100 16 100 50 0 13 -6 23 -12 23 -7
-1 -24 -4 -38 -6z"/>
<path d="M9990 3040 c-96 -4 -208 -15 -249 -24 -72 -16 -221 -70 -287 -103
-41 -21 -94 -67 -94 -82 0 -15 16 -17 -203 33 -281 65 -524 114 -672 136 -236
36 -493 21 -600 -34 -123 -63 -440 -79 -740 -37 -202 28 -496 37 -615 19 -73
-11 -85 -16 -88 -34 -3 -20 0 -20 245 -21 192 -1 292 -6 443 -24 224 -26 473
-31 590 -10 41 7 98 25 125 40 72 40 273 66 430 57 144 -8 288 -28 436 -60
583 -127 635 -141 652 -167 14 -22 0 -89 -19 -89 -9 0 -59 11 -112 24 -53 14
-173 41 -267 60 -93 19 -222 46 -285 59 -63 14 -158 30 -210 37 -52 6 -122 15
-156 21 -79 12 -199 12 -238 -1 -17 -5 -80 -16 -140 -24 -80 -10 -116 -20
-138 -36 -36 -27 -175 -50 -304 -50 -50 0 -174 9 -275 20 -234 25 -505 38
-681 32 l-138 -4 0 -29 0 -29 218 0 c132 0 308 -9 452 -21 453 -39 645 -35
690 14 15 15 45 23 132 33 62 8 131 21 153 29 67 23 374 -3 590 -50 39 -9 165
-36 280 -60 282 -58 345 -73 406 -96 29 -10 55 -17 57 -14 3 2 6 42 8 87 6
131 10 145 54 174 38 25 38 25 302 28 180 3 274 7 296 16 28 10 47 10 110 -3
106 -22 134 -25 237 -33 65 -5 93 -11 102 -23 10 -14 14 -10 32 29 23 49 28
120 9 120 -6 0 -26 11 -44 25 -18 14 -35 25 -39 25 -3 0 -18 9 -33 19 -35 25
-175 31 -422 21z m138 -37 c-10 -2 -26 -2 -35 0 -10 3 -2 5 17 5 19 0 27 -2
18 -5z m-101 -19 c-3 -3 -12 -4 -19 -1 -8 3 -5 6 6 6 11 1 17 -2 13 -5z m-49
-11 c-10 -2 -28 -2 -40 0 -13 2 -5 4 17 4 22 1 32 -1 23 -4z"/>
<path d="M6380 3001 c-8 -5 -35 -11 -60 -15 -73 -10 -173 -40 -240 -71 l-35
-16 32 4 c18 2 30 0 27 -5 -7 -11 -10 -11 81 17 44 13 118 30 165 37 82 11
100 19 100 46 0 14 -47 16 -70 3z"/>
<path d="M9361 2894 c0 -11 3 -14 6 -6 3 7 2 16 -1 19 -3 4 -6 -2 -5 -13z"/>
<path d="M6050 2880 c-8 -5 -10 -10 -5 -10 6 0 17 5 25 10 8 5 11 10 5 10 -5
0 -17 -5 -25 -10z"/>
<path d="M6345 2866 c-33 -7 -91 -24 -130 -38 -38 -14 -91 -33 -117 -43 -27
-9 -48 -21 -48 -26 0 -6 -4 -8 -9 -4 -5 3 -12 1 -16 -5 -13 -21 26 -21 61 -1
37 22 54 20 54 -4 0 -11 13 -7 48 14 56 33 158 71 190 71 18 0 42 25 42 44 0
7 1 7 -75 -8z"/>
<path d="M5357 2794 c-2 -14 0 -42 5 -62 5 -19 8 -48 6 -64 -3 -16 0 -28 6
-28 6 0 4 -5 -4 -10 -10 -7 -12 -12 -4 -17 15 -11 28 -83 14 -83 -5 0 -10 -7
-10 -15 0 -8 3 -15 8 -15 4 0 8 -62 9 -138 2 -75 8 -149 14 -165 8 -20 8 -31
0 -40 -8 -10 -7 -17 1 -25 7 -7 10 -38 8 -84 -4 -100 -4 -108 9 -233 13 -138
13 -135 22 -135 5 0 8 -19 8 -42 -1 -24 6 -77 14 -118 8 -41 21 -104 28 -140
7 -36 18 -72 24 -80 7 -8 10 -30 8 -48 -2 -17 0 -32 4 -32 5 0 10 -12 11 -27
2 -26 18 -81 45 -156 9 -26 11 -27 20 -11 6 10 9 39 8 64 l-2 45 183 -4 c452
-9 988 -11 988 -2 0 4 -28 18 -62 30 -99 35 -111 40 -138 61 l-25 19 37 -11
c39 -12 63 -4 38 12 -10 7 -11 10 -2 10 20 0 14 21 -8 27 -11 3 -20 11 -20 18
0 13 -124 57 -210 73 -77 15 -271 33 -281 26 -5 -3 -9 -1 -9 5 0 5 -8 9 -17 9
-10 -1 -65 12 -123 29 -58 17 -120 34 -137 38 -56 11 -37 22 59 34 55 7 123
24 168 42 130 53 175 59 290 43 56 -8 113 -20 128 -28 15 -7 41 -16 57 -20 54
-12 219 -80 207 -84 -7 -2 -26 1 -43 7 -18 6 -27 6 -24 1 9 -14 -9 -12 -25 3
-12 10 -12 9 0 -6 8 -11 21 -16 32 -14 10 3 18 1 18 -4 0 -5 6 -9 13 -9 6 0
21 -14 32 -30 24 -37 66 -50 160 -50 62 0 79 -5 149 -40 43 -22 85 -40 93 -40
8 0 31 -9 53 -20 29 -15 39 -27 42 -47 5 -46 45 -58 175 -56 98 2 118 0 147
-18 27 -16 70 -23 203 -34 164 -14 221 -25 353 -67 76 -24 90 -34 61 -43 -12
-3 -21 -13 -21 -21 0 -8 -5 -14 -11 -14 -5 0 -7 -5 -3 -11 5 -8 -3 -10 -25 -7
-35 5 -52 -6 -18 -12 12 -2 43 -4 69 -4 43 -1 48 -4 70 -41 21 -33 38 -46 104
-73 97 -41 126 -52 234 -87 47 -16 90 -32 96 -36 6 -5 13 -7 16 -4 9 9 88 -24
135 -55 25 -17 50 -29 57 -27 6 3 18 -2 27 -9 8 -8 39 -18 69 -24 29 -6 58
-14 64 -19 12 -9 55 -20 105 -26 25 -3 38 1 51 17 l18 22 43 -19 c24 -11 46
-22 49 -25 23 -24 80 -39 80 -20 0 6 6 10 14 10 8 0 16 5 18 11 2 6 16 -1 30
-14 15 -14 35 -27 44 -29 10 -2 18 -11 20 -20 2 -17 -7 -24 -18 -13 -3 3 -84
7 -181 10 -96 2 -227 9 -291 16 -110 12 -115 14 -110 34 5 19 -1 23 -48 32
-29 5 -130 33 -225 61 -144 43 -201 64 -297 110 -5 3 1 -13 13 -34 l23 -39
-22 20 c-18 17 -36 20 -104 20 -44 0 -100 -3 -124 -8 l-43 -7 7 47 c7 55 8 56
53 72 42 14 91 14 125 1 34 -12 34 4 2 45 -22 27 -28 29 -92 29 -38 -1 -79 -4
-92 -8 -19 -7 -22 -4 -22 23 0 28 -3 30 -46 37 -68 10 -1586 -3 -1969 -17
-295 -11 -338 -11 -401 4 -39 9 -80 13 -92 11 -19 -6 -90 21 -480 177 -195 79
-285 119 -278 126 3 3 0 17 -5 32 -6 14 -13 55 -15 90 -4 55 -3 63 11 57 12
-4 19 3 27 25 l11 32 18 -24 19 -24 6 23 c8 28 20 28 27 0 10 -36 19 -13 24
56 3 51 0 73 -16 103 -10 21 -24 57 -30 80 -14 52 -52 98 -100 122 -20 11 -46
30 -57 43 -22 23 -154 235 -154 247 -1 3 -9 16 -20 29 -17 21 -24 22 -89 17
-59 -5 -75 -3 -103 15 -18 11 -29 20 -24 20 5 0 1 9 -9 20 -19 21 -55 27 -55
10 0 -6 -11 -15 -24 -21 -13 -6 -26 -19 -29 -29 -4 -14 1 -17 27 -13 42 5 81
-10 101 -41 30 -45 56 -265 60 -496 1 -80 7 -165 12 -190 5 -25 7 -53 5 -62
-5 -24 -39 -23 -47 2 -4 13 -21 24 -51 31 -24 6 -47 15 -50 20 -7 12 -51 11
-59 -1 -3 -5 9 -25 27 -44 104 -107 136 -144 143 -166 4 -14 23 -42 40 -63 34
-39 50 -77 34 -77 -5 0 -9 4 -9 8 0 5 -37 51 -82 103 -45 51 -96 116 -115 144
-18 27 -43 63 -55 78 -20 25 -24 44 -28 140 -3 62 -8 102 -12 90 -8 -29 -41
-30 -67 -2 l-19 21 -7 -31 c-3 -16 -2 -47 4 -67 6 -21 9 -39 7 -41 -5 -5 -56
16 -56 23 0 3 9 4 20 1 24 -6 24 -2 5 53 -8 23 -15 52 -15 64 0 11 -7 29 -14
39 -11 15 -18 16 -42 7 -49 -19 -65 -39 -51 -64 22 -39 16 -74 -16 -90 -25
-12 -33 -12 -56 0 -32 17 -51 18 -51 2 0 -15 90 -150 108 -161 6 -4 12 -14 12
-20 0 -19 211 -109 224 -96 3 3 -7 43 -22 90 -16 46 -32 98 -35 114 l-6 30 12
-26 c7 -15 16 -26 22 -25 5 0 12 -15 16 -34 7 -41 84 -246 104 -275 7 -11 47
-37 88 -58 59 -30 80 -37 94 -29 18 10 59 -6 91 -36 28 -26 69 -39 127 -40 67
-2 101 11 75 28 -8 5 -23 10 -34 10 -10 0 -43 14 -73 31 -40 23 -59 42 -70 67
-11 26 -49 265 -53 330 0 2 -9 1 -19 -3 -15 -4 -21 1 -30 26 -13 39 -13 39 -1
39 5 0 16 -12 25 -27 15 -27 15 -26 13 44 -3 67 -2 71 14 56 34 -31 98 22 98
81 0 43 -9 53 -57 61 -38 6 -43 4 -43 -12 0 -10 9 -33 21 -52 11 -18 18 -35
15 -38 -7 -8 -56 75 -56 96 0 24 41 51 79 51 57 0 111 -96 141 -250 6 -30 25
-106 42 -168 28 -102 30 -118 20 -155 -7 -23 -14 -47 -15 -53 -8 -33 -31 -46
-72 -40 -65 10 -105 14 -105 11 0 -12 67 -33 111 -34 65 -2 131 -14 127 -22
-2 -3 3 -13 11 -22 29 -36 179 -9 173 31 -2 15 2 19 20 17 13 -1 23 -4 23 -5
0 -1 10 -4 22 -5 12 -1 46 -19 77 -39 30 -20 60 -36 67 -36 7 0 4 -8 -9 -20
-12 -11 -26 -20 -32 -20 -18 0 -11 -20 11 -28 17 -7 18 -10 7 -19 -16 -13
-107 -33 -151 -33 -18 0 -38 -5 -44 -11 -7 -7 -17 -8 -29 -1 -11 5 -43 13 -73
17 -49 7 -53 6 -40 -8 8 -8 46 -25 83 -38 65 -21 74 -22 163 -11 51 7 101 16
111 21 9 5 28 14 42 20 14 6 40 21 57 32 32 20 34 20 90 4 94 -28 185 -45 238
-45 55 0 248 -23 331 -39 28 -5 77 -11 110 -12 33 -1 66 -5 74 -8 17 -7 24
-53 18 -110 -5 -37 15 -35 36 4 24 44 41 44 67 1 19 -32 70 -66 101 -66 7 0
26 -11 41 -24 16 -14 46 -39 68 -57 22 -17 37 -34 35 -37 -3 -2 -47 17 -99 42
-52 25 -98 46 -101 46 -3 0 -6 -8 -6 -18 0 -33 -24 -52 -90 -70 -58 -15 -65
-20 -68 -44 -2 -15 4 -40 12 -57 20 -37 21 -63 2 -39 -7 10 -16 15 -19 11 -4
-3 -7 1 -7 10 0 27 -18 29 -40 5 -18 -19 -21 -32 -18 -75 5 -58 -6 -69 -24
-25 -11 26 -12 24 -20 -33 -4 -33 -6 -66 -3 -73 3 -7 0 -10 -5 -7 -16 10 -11
-53 6 -83 15 -25 14 -24 -14 5 -17 18 -33 29 -36 25 -5 -8 -9 -49 -7 -74 1
-17 61 -18 1044 -17 l1042 1 -115 23 c-63 14 -127 24 -142 25 -15 0 -39 5 -54
12 -24 11 -28 10 -53 -21 -14 -17 -29 -29 -33 -26 -12 12 35 95 57 101 35 9
115 -3 235 -34 248 -64 304 -61 452 25 68 40 76 40 88 8 25 -66 24 -72 -17
-94 l-38 -20 75 -1 c68 0 73 1 53 15 -19 13 -45 65 -63 126 l-8 27 43 -29 c23
-16 63 -38 89 -49 26 -11 67 -36 90 -55 35 -29 51 -35 87 -34 l44 0 -50 20
c-57 22 -76 37 -123 94 -17 22 -67 60 -109 85 -91 54 -114 82 -121 149 -2 28
-9 51 -15 51 -5 0 -63 -30 -129 -67 l-120 -66 -46 16 c-26 8 -69 24 -95 34
l-48 18 -33 -38 -33 -39 -42 22 c-23 11 -39 25 -36 30 16 27 -80 -5 -104 -33
-18 -22 -45 -21 -114 2 -32 11 -84 21 -117 22 -33 1 -60 6 -60 11 0 5 -9 4
-19 -2 -28 -15 -94 -13 -88 3 2 6 9 12 14 12 6 0 15 3 19 8 4 4 20 7 35 7 15
0 50 12 76 26 36 19 56 24 78 19 17 -4 113 -10 215 -14 102 -4 193 -10 202
-15 14 -6 22 0 39 28 25 43 49 46 96 10 27 -20 34 -22 39 -10 8 21 189 98 221
94 14 -2 30 -11 34 -20 5 -10 13 -26 17 -35 7 -14 132 -98 132 -88 0 20 -75
124 -97 135 -15 8 -37 21 -48 30 -11 9 -35 23 -54 30 -29 12 -38 11 -65 -3
-51 -26 -150 -58 -157 -49 -14 15 -17 91 -4 102 18 15 140 40 195 40 26 0 55
-7 69 -16 23 -16 23 -16 11 6 l-12 23 33 -21 c19 -11 59 -30 89 -42 76 -30
303 -100 353 -108 33 -6 42 -12 42 -27 0 -24 21 -28 215 -44 74 -7 206 -19
293 -27 87 -8 161 -12 166 -10 5 3 14 -1 21 -9 9 -11 17 -12 30 -5 10 6 35 10
55 10 35 0 36 1 33 33 -2 25 -8 33 -26 35 -29 4 -35 18 -24 67 6 32 13 40 42
50 27 9 36 18 38 38 3 28 -20 38 -34 15 -12 -19 -34 21 -28 52 5 23 2 28 -20
32 -19 4 -26 1 -26 -11 0 -22 -29 -63 -40 -56 -4 3 -6 23 -3 45 3 22 2 40 -3
41 -11 1 -1 -1 -198 43 -154 34 -192 46 -148 46 11 0 26 8 31 18 10 15 12 16
23 1 14 -17 81 -19 127 -4 15 5 21 4 17 -3 -7 -12 29 -26 44 -17 5 3 10 15 10
25 0 29 17 33 24 5 7 -27 26 -34 26 -10 0 8 7 15 15 15 8 0 15 -7 15 -15 0
-18 16 -20 23 -3 3 7 6 3 6 -9 1 -21 15 -25 37 -10 7 4 17 0 24 -8 7 -8 16
-12 21 -9 5 3 9 1 9 -5 0 -6 7 -8 15 -5 9 4 15 0 15 -10 0 -9 7 -16 15 -16 8
0 12 6 10 12 -4 9 5 13 27 12 17 0 43 5 57 12 14 8 32 14 39 14 20 0 39 23 34
40 -5 13 -3 13 11 1 10 -7 17 -9 17 -4 0 6 11 22 25 36 15 14 22 28 16 31 -5
4 -14 -1 -19 -11 -9 -14 -13 -15 -26 -4 -14 12 -19 11 -34 -1 -28 -25 -58 -30
-72 -13 -16 19 -34 20 -27 1 7 -19 -22 -45 -31 -29 -4 6 -35 15 -70 19 -34 3
-65 10 -68 15 -8 14 -33 -2 -27 -18 4 -11 2 -14 -8 -11 -8 3 -13 11 -12 17 4
16 -7 14 -29 -6 -16 -14 -18 -14 -18 0 0 8 6 18 13 21 6 2 -5 3 -25 1 -21 -2
-38 -1 -38 3 0 4 -18 8 -41 9 -22 1 -49 5 -61 9 -14 4 -18 2 -14 -5 4 -6 0
-11 -8 -11 -9 0 -16 5 -16 11 0 6 -7 8 -16 5 -10 -4 -21 0 -28 9 -13 18 -74
37 -81 25 -7 -11 -73 5 -94 24 -10 9 -23 16 -30 16 -7 0 -10 4 -7 9 4 5 -11 7
-33 4 -28 -4 -52 1 -84 16 -24 12 -55 20 -68 19 -14 -1 -39 7 -55 19 -16 12
-46 24 -67 28 -20 4 -37 11 -37 15 0 11 -68 42 -78 36 -7 -4 -95 26 -157 54
-30 14 -115 21 -115 10 0 -6 -9 -10 -20 -10 -11 0 -20 -4 -20 -10 0 -5 -9 -10
-19 -10 -11 0 -23 -4 -26 -10 -3 -5 -18 -7 -33 -5 -15 2 -58 7 -97 9 -67 5
-126 15 -206 35 -20 4 -108 41 -196 80 l-160 72 -69 -11 c-37 -6 -73 -15 -80
-20 -6 -6 -13 -7 -16 -5 -9 9 4 100 16 107 22 14 -5 21 -30 7 -39 -21 -149
-18 -324 7 -25 3 -67 15 -95 25 -48 18 -49 18 -70 -1 -12 -11 -28 -20 -36 -20
-18 1 -65 26 -61 34 6 14 0 22 -25 34 -15 6 -31 12 -37 12 -18 0 -156 55 -156
62 0 9 82 0 124 -13 16 -5 51 -9 77 -9 26 0 76 -6 111 -14 68 -16 314 -46 374
-46 31 0 35 2 24 15 -6 8 -31 26 -55 40 -36 21 -64 27 -160 35 -63 5 -119 12
-125 15 -5 3 -58 1 -117 -5 -120 -11 -218 1 -328 39 -32 12 -95 23 -139 27
-45 3 -91 10 -102 16 -29 13 -188 -15 -303 -54 -47 -15 -92 -28 -100 -28 -9 0
-52 -11 -95 -25 -86 -27 -158 -33 -153 -12 1 6 -6 11 -15 9 -11 -2 -18 3 -18
13 0 18 -5 19 -30 5 -12 -6 -16 -17 -13 -30 3 -11 0 -20 -6 -20 -6 0 -11 6
-11 14 0 7 -3 27 -6 43 -5 28 -3 31 69 66 79 39 92 43 82 27 -3 -5 -4 -10 -2
-10 11 0 140 62 187 90 29 17 75 37 104 45 89 25 96 27 96 36 0 15 -57 10
-149 -12 -182 -44 -210 -55 -348 -135 -17 -10 -35 -16 -38 -12 -4 4 -13 55
-21 115 -8 59 -24 134 -34 165 -22 65 -25 77 -40 218 -26 248 -34 310 -61 465
-15 87 -19 115 -23 158 -4 47 -12 56 -19 21z m-657 -1263 c6 -11 6 -22 1 -25
-5 -3 -11 5 -13 19 -6 30 -2 32 12 6z m890 -51 c0 -5 13 -10 29 -10 31 0 68
-27 54 -41 -4 -4 -29 -5 -55 -2 -45 5 -48 8 -48 34 0 16 5 29 10 29 6 0 10 -4
10 -10z m20 -70 c12 -8 11 -10 -7 -10 -12 0 -25 5 -28 10 -8 13 15 13 35 0z
m89 -34 c23 -13 22 -13 -19 -20 -45 -7 -114 9 -105 25 9 14 97 10 124 -5z m11
-71 l34 -12 -63 -6 c-70 -6 -91 -2 -91 18 0 26 46 26 120 0z m-83 -41 c-3 -3
-12 -4 -19 -1 -8 3 -5 6 6 6 11 1 17 -2 13 -5z m192 -3 c27 -17 -24 -22 -85
-7 l-59 14 65 1 c36 0 71 -3 79 -8z m1845 -17 c8 -3 12 -12 9 -20 -4 -11 -14
-13 -37 -8 -47 10 -54 18 -21 25 17 4 31 7 32 8 1 0 8 -2 17 -5z m-1934 -24
c26 -6 16 -8 -44 -7 -56 1 -81 6 -84 15 -4 14 47 11 128 -8z m104 -36 c29 -11
17 -24 -23 -24 -46 0 -73 9 -65 21 6 10 64 12 88 3z m-174 -14 c0 -13 -20 -13
-40 0 -12 8 -9 10 13 10 15 0 27 -4 27 -10z m2745 -30 c3 -5 -1 -10 -10 -10
-9 0 -13 -4 -10 -10 8 -13 -5 -13 -25 0 -13 8 -12 10 3 10 9 0 17 5 17 10 0 6
4 10 9 10 6 0 13 -4 16 -10z m-402 -279 c8 -31 -12 -41 -42 -22 -12 8 -12 12
-2 25 18 22 38 20 44 -3z m-2930 -38 c-7 -2 -19 -2 -25 0 -7 3 -2 5 12 5 14 0
19 -2 13 -5z m1705 -76 c29 -15 60 -34 68 -42 9 -8 22 -15 30 -15 8 0 14 -4
14 -10 0 -28 -122 10 -167 53 -18 17 -33 34 -33 37 0 13 36 3 88 -23z m-580 3
c-14 -22 -24 -19 -15 5 4 8 11 15 17 15 6 0 6 -7 -2 -20z m422 -27 c0 -26 -16
-12 -18 15 -1 21 0 23 8 12 5 -8 10 -21 10 -27z m45 -161 c11 -35 11 -42 -1
-42 -8 0 -14 3 -14 8 0 4 -4 24 -9 45 -13 53 8 44 24 -11z m283 12 c13 -8 28
-27 35 -42 6 -15 16 -30 20 -33 5 -4 5 -9 -1 -13 -5 -3 -38 22 -73 56 -56 55
-60 60 -33 54 16 -4 39 -14 52 -22z m659 -45 c8 -8 38 -11 80 -8 123 6 218 3
237 -8 14 -8 25 -8 37 0 13 8 27 8 53 0 21 -7 38 -7 42 -2 8 14 24 10 24 -6 0
-8 -9 -15 -20 -15 -13 0 -26 -12 -37 -36 -14 -28 -21 -34 -38 -29 -59 19 -113
24 -243 25 -79 0 -152 5 -163 10 -23 13 -25 33 -4 50 8 7 12 16 9 21 -8 13 10
11 23 -2z m1983 -43 c0 -45 -14 -66 -31 -49 -14 14 1 93 17 93 10 0 14 -13 14
-44z m-3185 -16 c6 -9 -5 -13 -74 -24 l-34 -6 34 29 c33 29 56 29 74 1z m-278
-52 c-3 -7 -5 -2 -5 12 0 14 2 19 5 13 2 -7 2 -19 0 -25z m671 -8 c2 -6 8 -10
14 -10 14 0 38 -26 31 -34 -17 -17 -61 -3 -98 31 l-40 36 45 -7 c25 -4 47 -11
48 -16z m-215 -60 c40 -21 97 -51 127 -67 30 -16 64 -32 75 -35 11 -3 27 -9
36 -12 13 -6 16 -2 12 18 -4 20 -1 26 12 26 11 0 15 -7 13 -22 -2 -14 5 -30
17 -40 20 -16 20 -16 -10 -24 -40 -10 -128 10 -168 38 -52 36 -217 170 -217
175 0 3 7 0 15 -7 9 -7 48 -30 88 -50z m478 8 c11 -21 24 -36 29 -33 6 4 10
-1 10 -10 0 -10 -4 -13 -12 -8 -7 4 -21 6 -30 5 -19 -3 -32 17 -43 65 -5 28
-4 32 10 27 9 -4 25 -24 36 -46z m-666 -83 c-8 -22 -14 -49 -15 -60 0 -17 -2
-18 -10 -4 -9 15 4 66 24 97 15 24 15 7 1 -33z m2023 -2 c7 -25 9 -49 5 -52
-43 -32 -139 -91 -180 -110 l-52 -24 -153 38 c-98 24 -180 38 -229 39 -71 1
-109 14 -109 36 0 4 8 18 18 30 l17 21 65 -30 65 -31 15 22 c47 69 34 68 170
21 l122 -41 92 58 c138 86 138 85 154 23z m-2194 -78 c40 -59 42 -64 12 -30
-19 22 -45 58 -57 80 -29 53 -13 35 45 -50z m1106 23 c112 1 222 -4 245 -9 22
-6 52 -13 68 -16 31 -6 32 -11 13 -58 -10 -24 -22 -35 -35 -35 -12 0 -21 4
-21 8 0 5 -82 12 -182 15 -101 4 -209 10 -241 13 -53 6 -59 9 -72 39 -7 18
-21 38 -32 44 -14 9 -11 10 17 5 19 -4 127 -6 240 -6z m-970 -75 c0 -5 -5 -15
-10 -23 -8 -12 -10 -11 -10 8 0 12 5 22 10 22 6 0 10 -3 10 -7z m-33 -25 c-3
-8 -6 -5 -6 6 -1 11 2 17 5 13 3 -3 4 -12 1 -19z m-227 -78 c0 -5 -4 -10 -10
-10 -5 0 -10 5 -10 10 0 6 5 10 10 10 6 0 10 -4 10 -10z m1484 -6 c15 -9 11
-12 -30 -17 -27 -4 -67 -5 -89 -2 -22 2 -71 6 -109 10 -37 3 -76 9 -85 15 -10
6 39 8 139 7 87 -2 163 -7 174 -13z"/>
<path d="M6100 2720 c-8 -5 -28 -10 -43 -10 -16 0 -26 -4 -22 -10 6 -9 85 -15
85 -6 0 2 3 11 6 20 7 18 -4 20 -26 6z"/>
<path d="M8100 2673 c-41 -2 -79 -8 -86 -14 -6 -5 -65 -16 -130 -24 -91 -12
-131 -22 -169 -43 -50 -27 -51 -27 -235 -25 -102 1 -257 10 -345 19 -90 9
-286 18 -447 21 l-288 5 0 -30 0 -29 89 -7 c50 -4 100 -4 113 -1 27 7 363 -9
638 -30 293 -22 370 -20 428 9 32 16 87 29 172 40 88 12 129 22 137 33 9 12
23 14 55 10 24 -3 77 -1 118 4 59 9 97 7 185 -6 60 -9 124 -21 140 -27 17 -6
53 -15 80 -20 28 -5 111 -23 185 -39 74 -16 182 -38 240 -49 58 -12 165 -36
239 -55 148 -38 151 -38 151 25 0 19 -4 30 -8 23 -5 -8 -50 -1 -167 27 -88 21
-201 46 -250 55 -84 15 -319 64 -410 86 -70 16 -299 49 -330 47 -16 -1 -64 -4
-105 -5z"/>
<path d="M8085 2498 c-33 -5 -79 -7 -102 -4 -33 4 -45 2 -55 -12 -10 -13 -45
-22 -138 -35 -69 -10 -135 -25 -148 -33 -14 -9 -58 -18 -110 -21 -88 -5 -463
19 -579 37 -35 6 -105 10 -155 10 -51 -1 -104 0 -118 1 -14 0 -81 -1 -150 -3
l-125 -4 3 -24 c2 -14 6 -27 8 -30 3 -2 122 -5 264 -7 143 -1 294 -7 337 -12
43 -5 165 -15 271 -22 155 -11 205 -11 260 0 37 7 125 23 197 36 93 17 133 28
142 41 11 15 30 18 110 19 54 1 148 5 208 10 112 8 225 -5 225 -26 0 -15 60
-36 106 -38 23 0 99 -14 170 -30 71 -16 174 -37 229 -46 55 -10 134 -28 175
-42 117 -38 229 -65 240 -58 5 3 10 21 10 39 0 33 -1 33 -52 39 -29 4 -108 22
-174 41 -67 19 -168 42 -224 51 -56 8 -147 27 -203 41 -55 14 -131 29 -168 33
-42 4 -75 14 -87 24 -37 34 -227 47 -367 25z"/>
<path d="M8095 2334 c-60 -8 -142 -13 -181 -10 -69 4 -71 4 -88 -24 l-17 -29
37 -7 c21 -4 85 -4 143 1 344 23 371 23 371 -1 0 -20 28 -31 102 -38 37 -4
127 -22 200 -41 73 -18 169 -39 213 -45 109 -15 261 -54 326 -83 30 -13 67
-27 84 -31 16 -4 34 -11 40 -16 15 -12 6 -100 -10 -100 -7 0 -45 13 -83 30
-89 38 -151 54 -327 85 -77 14 -212 43 -300 65 -87 22 -176 40 -196 40 -51 0
-90 16 -96 41 -5 17 -11 19 -47 15 -159 -21 -248 -27 -380 -25 -143 1 -151 0
-165 -20 -7 -12 -11 -24 -7 -28 23 -23 307 -25 441 -3 87 14 135 13 135 -4 0
-17 51 -36 97 -36 19 0 114 -20 211 -45 97 -24 244 -56 326 -70 82 -14 176
-35 210 -46 84 -28 196 -88 196 -105 0 -10 16 -14 64 -14 57 0 65 3 71 21 4
13 1 27 -10 39 -13 15 -15 28 -10 61 7 40 6 42 -10 26 -20 -20 -48 -22 -64 -4
-6 7 -13 51 -15 96 -3 46 -7 86 -10 89 -4 3 -6 -2 -6 -11 0 -24 -32 -21 -115
9 -125 45 -228 72 -338 88 -60 9 -159 29 -220 46 -62 16 -143 32 -182 35 -60
5 -73 9 -92 33 -21 25 -29 27 -105 29 -46 1 -132 -5 -193 -13z"/>
<path d="M6525 2271 c-93 -6 -100 -7 -97 -26 6 -39 31 -47 125 -41 99 7 453
-9 536 -24 112 -20 321 -23 466 -6 205 24 201 23 225 63 11 19 20 36 20 37 0
2 -30 -2 -67 -10 -266 -52 -352 -54 -668 -18 -77 9 -188 16 -247 15 -63 -1
-109 3 -113 9 -3 5 -23 9 -43 8 -20 -1 -82 -4 -137 -7z"/>
<path d="M4030 2157 c0 -2 -5 -29 -10 -60 -8 -41 -8 -62 0 -77 11 -21 12 -21
41 9 32 34 36 53 15 70 -8 7 -17 23 -20 36 -4 14 -11 25 -16 25 -6 0 -10 -1
-10 -3z"/>
<path d="M4158 2123 c9 -23 20 -36 23 -31 4 6 3 16 -2 22 -5 6 -16 20 -24 31
-10 14 -10 8 3 -22z"/>
<path d="M4193 2074 c-3 -9 -1 -31 5 -50 7 -24 7 -33 -1 -31 -20 4 -19 -39 2
-64 l19 -24 36 37 c29 29 36 45 36 75 0 34 -4 40 -39 56 -46 21 -50 21 -58 1z"/>
<path d="M7560 2066 l-75 -12 74 -18 74 -19 18 24 c34 44 32 44 -91 25z"/>
<path d="M8160 2009 c-25 -4 -135 -8 -244 -8 -110 -1 -197 -3 -194 -6 2 -3 51
-17 109 -31 111 -28 253 -34 336 -16 27 6 45 6 51 0 6 -6 54 -19 109 -29 54
-10 139 -30 188 -44 221 -63 335 -84 475 -86 233 -3 235 0 17 41 -194 37 -351
72 -489 110 -60 17 -140 35 -180 40 -40 6 -79 17 -88 25 -18 16 -23 16 -90 4z"/>
<path d="M4025 1960 c3 -5 8 -10 11 -10 2 0 4 5 4 10 0 6 -5 10 -11 10 -5 0
-7 -4 -4 -10z"/>
<path d="M4195 1880 c3 -5 8 -10 11 -10 2 0 4 5 4 10 0 6 -5 10 -11 10 -5 0
-7 -4 -4 -10z"/>
<path d="M4027 1863 c-4 -3 -7 -12 -7 -19 0 -9 7 -10 29 -1 17 6 28 15 25 19
-6 10 -38 11 -47 1z"/>
<path d="M4151 1831 c-1 -28 3 -41 8 -35 6 5 6 24 1 44 l-8 35 -1 -44z"/>
<path d="M6459 1501 c9 -32 55 -42 65 -15 9 23 -6 37 -42 39 -27 1 -29 -1 -23
-24z"/>
<path d="M10124 1383 c-3 -16 -10 -41 -14 -56 -5 -15 -5 -25 -1 -22 5 2 11 -4
14 -15 6 -22 -8 -37 -18 -20 -4 6 -11 8 -16 4 -6 -3 -3 -12 8 -20 17 -13 17
-13 1 -15 -10 -1 -23 -2 -30 -3 -6 0 -13 -7 -16 -15 -3 -10 1 -12 19 -8 13 4
29 7 36 7 15 0 35 36 37 65 1 11 7 19 13 18 6 -1 9 7 6 20 -4 16 -2 18 5 8 8
-11 11 -10 14 5 5 23 -21 74 -39 74 -7 0 -15 -12 -19 -27z"/>
<path d="M4520 1370 c-21 -7 -19 -8 18 -9 23 -1 42 4 42 9 0 12 -24 12 -60 0z"/>
<path d="M10045 1190 c4 -6 11 -8 16 -5 14 9 11 15 -7 15 -8 0 -12 -5 -9 -10z"/>
<path d="M5623 980 c-9 -35 -8 -40 7 -40 22 0 34 50 16 68 -9 10 -14 4 -23
-28z"/>
<path d="M6085 992 c-3 -3 -5 -19 -5 -35 0 -29 1 -29 42 -23 22 4 45 9 50 12
10 6 11 44 1 45 -68 5 -84 5 -88 1z"/>
<path d="M6251 992 c-6 -2 -11 -17 -11 -34 0 -30 0 -30 43 -22 23 4 49 7 57 7
18 0 31 17 23 30 -3 5 -9 3 -14 -4 -7 -11 -9 -10 -9 4 0 9 -3 17 -7 18 -26 4
-72 4 -82 1z"/>
<path d="M6460 991 c-53 -6 -55 -7 -58 -37 l-3 -31 67 3 c37 2 71 8 74 15 6 8
9 8 15 -1 6 -9 10 -9 16 1 14 23 11 42 -7 35 -8 -3 -13 -2 -10 3 6 9 -18 23
-32 19 -4 -1 -32 -4 -62 -7z"/>
<path d="M5817 968 c-3 -12 -4 -25 -1 -29 6 -10 131 -1 159 11 11 4 28 11 38
14 43 14 -1 26 -92 26 -93 0 -99 -1 -104 -22z m123 -8 c0 -5 -13 -10 -30 -10
-16 0 -30 5 -30 10 0 6 14 10 30 10 17 0 30 -4 30 -10z"/>
<path d="M6627 983 c-11 -10 -8 -41 4 -48 5 -4 19 1 30 11 11 10 19 12 19 6 0
-7 7 -12 15 -12 8 0 15 7 15 15 0 8 -9 15 -20 15 -11 0 -20 5 -20 10 0 11 -33
14 -43 3z"/>
<path d="M6190 960 c0 -19 3 -21 12 -12 9 9 9 15 0 24 -9 9 -12 7 -12 -12z"/>
<path d="M6027 963 c-13 -12 -7 -23 13 -23 11 0 20 7 20 15 0 15 -21 21 -33 8z"/>
<path d="M6047 621 c-6 -23 -1 -31 41 -60 23 -16 42 -21 60 -18 67 14 97 24
97 32 0 18 -46 17 -66 -1 -19 -17 -21 -17 -58 24 -42 45 -66 53 -74 23z"/>
<path d="M8474 453 c33 -65 100 -102 256 -143 119 -31 130 -35 130 -54 0 -14
164 -42 295 -50 44 -3 127 -10 185 -15 58 -5 164 -11 235 -13 127 -3 130 -3
133 19 6 42 -4 44 -603 83 -223 15 -245 19 -245 45 0 19 -7 24 -47 30 -69 10
-279 81 -313 105 -38 27 -43 25 -26 -7z"/>
<path d="M8570 263 c0 -5 14 -25 31 -46 43 -52 86 -73 212 -101 17 -4 27 -13
27 -25 0 -15 16 -21 94 -35 161 -28 362 -47 569 -52 l197 -6 0 31 c0 25 -4 31
-22 32 -250 7 -608 34 -657 48 -19 6 -67 13 -107 17 -64 6 -73 9 -76 28 -2 16
-16 23 -73 37 -89 21 -133 37 -167 61 -16 11 -28 16 -28 11z"/>
</g>
</svg>
