<svg class="responsive-icon" viewBox="0 0 262 262" fill="none" xmlns="http://www.w3.org/2000/svg">
<g filter="url(#filter0_d_40_660)">
<circle cx="131" cy="125" r="125" fill="#FEB000"/>
</g>
<path d="M131.5 82.752C143.858 82.752 153.876 72.7337 153.876 60.376C153.876 48.0183 143.858 38 131.5 38C119.143 38 109.124 48.0183 109.124 60.376C109.124 72.7337 119.143 82.752 131.5 82.752Z" fill="#E00411"/>
<path d="M145.485 133.098C145.485 139.343 146.754 145.523 149.214 151.264L169.979 199.717C171.805 203.977 169.832 208.91 165.572 210.735C161.313 212.561 156.38 210.588 154.555 206.328L133.788 157.875C133.627 157.499 133.47 157.122 133.317 156.743C133.008 155.982 132.275 155.474 131.454 155.474C130.613 155.474 129.867 156.006 129.575 156.794C129.142 157.958 128.681 159.112 128.191 160.256L108.445 206.328C106.62 210.588 101.687 212.561 97.4275 210.735C93.1682 208.91 91.1947 203.977 93.0205 199.717L112.766 153.645C115.899 146.334 117.515 138.462 117.515 130.507V115.529C97.3732 113.25 78.6932 106.105 62.6955 95.2993C58.8552 92.7053 57.8444 87.4895 60.4383 83.6492C63.0322 79.8089 68.2486 78.7986 72.0884 81.3926C89.046 92.8463 109.479 99.5339 131.5 99.5339C153.521 99.5339 173.954 92.8463 190.912 81.3926C194.752 78.7986 199.968 79.8089 202.562 83.6492C205.156 87.4895 204.145 92.7053 200.305 95.2993C184.307 106.105 165.627 113.25 145.485 115.529V133.098Z" fill="#E00411"/>
<defs>
<filter id="filter0_d_40_660" x="0" y="0" width="262" height="262" filterUnits="userSpaceOnUse" color-interpolation-filters="sRGB">
<feFlood flood-opacity="0" result="BackgroundImageFix"/>
<feColorMatrix in="SourceAlpha" type="matrix" values="0 0 0 0 0 0 0 0 0 0 0 0 0 0 0 0 0 0 127 0" result="hardAlpha"/>
<feOffset dy="6"/>
<feGaussianBlur stdDeviation="3"/>
<feComposite in2="hardAlpha" operator="out"/>
<feColorMatrix type="matrix" values="0 0 0 0 0 0 0 0 0 0 0 0 0 0 0 0 0 0 0.25 0"/>
<feBlend mode="normal" in2="BackgroundImageFix" result="effect1_dropShadow_40_660"/>
<feBlend mode="normal" in="SourceGraphic" in2="effect1_dropShadow_40_660" result="shape"/>
</filter>
</defs>
</svg>
